<svg xmlns="http://www.w3.org/2000/svg" width="165.42mm" height="23.12mm" viewBox="0 0 468.89 65.54">
  <title>アセット 1</title>
  <g id="レイヤー_2" data-name="レイヤー 2">
    <g id="ロゴ">
      <g>
        <polygon points="74.8 54.85 84.61 54.85 84.61 33.74 84.61 28.83 84.61 10.35 74.8 10.35 74.8 54.85" style="fill: #fff"/>
        <polygon points="274.67 54.85 284.48 54.85 284.48 33.74 284.48 28.83 284.48 10.35 274.67 10.35 274.67 54.85" style="fill: #fff"/>
        <path d="M139.9,10.35l-20,44.31L99.43,31l18.92-20.68H105.53L86.91,31.18l19.44,23.67h24.26l3.54-8.55h19.36l3.66,8.55h11.06L148,10.35ZM137.58,38l6.09-14.7L150,38Z" style="fill: #fff"/>
        <path d="M339.78,10.35l-20,44.31L299.3,31l18.93-20.68H305.4L286.78,31.18l19.44,23.67h24.27L334,46.3h19.36l3.66,8.55h11.06l-20.23-44.5ZM337.46,38l6.09-14.7L349.84,38Z" style="fill: #fff"/>
        <path d="M448.67,10.35h-8.11l-20.11,44.5h10.82l3.54-8.55h19.36l3.66,8.55h11.06ZM438.24,38l6.09-14.7L450.62,38Z" style="fill: #fff"/>
        <path d="M206.23,15.41a23.35,23.35,0,0,0-8.39-3.86,41.82,41.82,0,0,0-10.15-1.2H173v44.5h16a31.12,31.12,0,0,0,9.49-1.44,24.27,24.27,0,0,0,8-4.25,20.4,20.4,0,0,0,5.5-6.91,21.17,21.17,0,0,0,2-9.52,23.35,23.35,0,0,0-2.1-10.37A18.89,18.89,0,0,0,206.23,15.41Zm-3.62,23.2a11,11,0,0,1-3.36,4.21,13.41,13.41,0,0,1-5.06,2.29,27.42,27.42,0,0,1-6.31.69h-5.1V19.4h5.79a21.85,21.85,0,0,1,5.88.79,14.48,14.48,0,0,1,4.86,2.36,11.1,11.1,0,0,1,3.3,4,12.4,12.4,0,0,1,1.23,5.69A14.91,14.91,0,0,1,202.61,38.61Z" style="fill: #fff"/>
        <path d="M261.22,15.54a22,22,0,0,0-7.61-4.68,29,29,0,0,0-19.22,0,21.94,21.94,0,0,0-7.61,4.68,21.34,21.34,0,0,0-5,7.38A25.22,25.22,0,0,0,220,32.6a25.3,25.3,0,0,0,1.79,9.69,21.34,21.34,0,0,0,5,7.38,21.94,21.94,0,0,0,7.61,4.68,29,29,0,0,0,19.22,0,22,22,0,0,0,7.61-4.68,21.34,21.34,0,0,0,5-7.38A25.3,25.3,0,0,0,268,32.6a25.22,25.22,0,0,0-1.79-9.68A21.34,21.34,0,0,0,261.22,15.54Zm-4.37,22.82a13.1,13.1,0,0,1-2.8,4.52,12.84,12.84,0,0,1-4.36,3,15.66,15.66,0,0,1-11.38,0,12.88,12.88,0,0,1-4.37-3,13.08,13.08,0,0,1-2.79-4.52,16.12,16.12,0,0,1-1-5.76,16.21,16.21,0,0,1,1-5.72,13.11,13.11,0,0,1,2.79-4.55,12.74,12.74,0,0,1,4.37-3,15.8,15.8,0,0,1,11.38,0,12.7,12.7,0,0,1,4.36,3,13.14,13.14,0,0,1,2.8,4.55,17.3,17.3,0,0,1,0,11.48Z" style="fill: #fff"/>
        <polygon points="414.94 10.35 407.46 39.64 407.33 39.64 398.96 10.35 389.85 10.35 381.41 38.89 381.29 38.89 374.18 10.35 363.5 10.35 376.7 54.85 385.12 54.85 394.06 24.05 394.19 24.05 403.12 54.85 411.85 54.85 424.87 10.35 414.94 10.35" style="fill: #fff"/>
        <path d="M27.78,10.2a.73.73,0,0,0-1.23-.51,3.26,3.26,0,0,0-.37,1,2.7,2.7,0,0,1-2.32,2,3.44,3.44,0,0,0,2.91-.67A2.42,2.42,0,0,0,27.78,10.2Z" style="fill: #fff"/>
        <path d="M27.46,13.07a2.35,2.35,0,0,0,1.7-1.85c.05-.49-.08-.88-.54-.82s-.57.84-.78,1.18a3.19,3.19,0,0,1-2.58,1.36,1.53,1.53,0,0,0,1,.24A4.09,4.09,0,0,0,27.46,13.07Z" style="fill: #fff"/>
        <path d="M31.87,59.79a4.37,4.37,0,0,0-1.8,0c-.39,0-1.56.2-1.74-.11a1.41,1.41,0,0,1,0-.65c.09-.72.18-1.33.29-2,.92-.07,1.86-.3,2-1.15A2.59,2.59,0,0,1,28.8,56a27.3,27.3,0,0,1,.78-3.81c.12-.38.22-.95.49-1a2.34,2.34,0,0,1,.69,0c1.83.08,3.36-.29,4.14-1.27-1.34.26-3.51.62-4.58-.11a5.69,5.69,0,0,1-.8-.76,20,20,0,0,1-2.19-2.54c-.44,0-1,0-1.42,0a6.82,6.82,0,0,1,1.6-.38c-.2-.33-.47-.67-.71-1a2.43,2.43,0,0,1-.62-1.13c.31,0,.53.24.73.41l.64.53A28.76,28.76,0,0,0,35.21,49a12.47,12.47,0,0,0,3.92.78,37.36,37.36,0,0,1-3.87-2.21A11.44,11.44,0,0,1,32,44.76,23.18,23.18,0,0,0,35.83,47a11.79,11.79,0,0,0,4.94,1.18,7.63,7.63,0,0,0,3.81-1c-3.25,0-5.66-.77-7.12-2.52A17.85,17.85,0,0,0,44.85,42,19.27,19.27,0,0,0,50,37,16.5,16.5,0,0,0,53,29.76a10.07,10.07,0,0,0-.2-4.52,4.48,4.48,0,0,0-2.32-2.75,1.78,1.78,0,0,0-2.56,1.13,14.23,14.23,0,0,0,0,1.6,19.55,19.55,0,0,1-2.2,9.08c-2.21,4.15-6,6.94-11.1,8.21a17.1,17.1,0,0,1-5.7.68,7.2,7.2,0,0,1-4.41-2A7.75,7.75,0,0,1,22.19,37a15.85,15.85,0,0,0,2.49,3.52,5.52,5.52,0,0,0,4,2,6.54,6.54,0,0,1-3.2-3.86A7.28,7.28,0,0,0,29.09,42a7.42,7.42,0,0,0,5.7-.47,7.14,7.14,0,0,1-6-2.69l.05,0a11,11,0,0,0,6.47,2,8.73,8.73,0,0,0,5.41-2.54c.09-.08.23-.17.2-.25a13.86,13.86,0,0,1-7,.62,4.89,4.89,0,0,1-2.07-.6c3.21.43,6.79.39,9.13-.73a9.73,9.73,0,0,0,4.87-5.54s-.16.08-.22.13c-2.47,2.17-5.33,4.2-10,4,1.53-.4,3.09-.72,4.51-1.25,2.75-1,5.09-2.65,6.25-5.32a9.6,9.6,0,0,0,.43-5.7,11.18,11.18,0,0,1-2.92,5.92,9.6,9.6,0,0,1-5.59,3.27c3-1.43,5.64-3.46,7-6.63a9.4,9.4,0,0,0,.37-5.79,5.67,5.67,0,0,0-3-3.8,10.47,10.47,0,0,1,.69,3.74,12.69,12.69,0,0,1-.6,3.85,9.6,9.6,0,0,1-3.09,4.67c-.21.16-.41.4-.69.42a13.77,13.77,0,0,0,2.58-4,12,12,0,0,0,1-5.52,5.46,5.46,0,0,0-1.23-3.14,3.62,3.62,0,0,0-3-1.37c.13.21.3.39.44.62,1,1.57,1.23,4.23.77,6.6a12.74,12.74,0,0,1-2.79,5.9s-.11.08-.06.14a.88.88,0,0,1,1.24.07c.68.77.17,2.74-.25,3.38.2,0,.22,0,.25.13.09.33-.27.81-.4,1a5.44,5.44,0,0,1-2.12,2.16A3.7,3.7,0,0,1,34,36.88a4.17,4.17,0,0,1-2.64.81c-.05.6-.86.7-1.36.78a10.53,10.53,0,0,1-3.27,0,4.52,4.52,0,0,1-1.36-.4c-.18-.1-.34-.32-.56-.29s-.22.19-.29.27c-.4.47-.92,0-1.17-.42s-.4-1.45,0-1.7c0,.17,0,.41,0,.61,0,.48.28,1.4.77,1.33.26,0,.21-.43.52-.47a1,1,0,0,1-.09-1.06,1.45,1.45,0,0,0,.4,1c.87.91,3.74,1.21,5.43.75.23-.06.53-.1.58-.35-.14-.12-.32-.08-.46-.14a2.62,2.62,0,0,1-.85-.58A2,2,0,0,1,29,36.2a4.1,4.1,0,0,0,1.8,1,3.8,3.8,0,0,0,2.92-.53c.49-.33,1-.69,1.2-1.18a2,2,0,0,1-1.83-.36c.36,0,.6.16,1,.16a4.09,4.09,0,0,0,3-1.87,2.14,2.14,0,0,0,.54-1.07,5.34,5.34,0,0,1-2.9,1A7.4,7.4,0,0,0,37.23,32a2.94,2.94,0,0,0,.63-1.22c.19-.7.26-2.27-.65-2.2a2.21,2.21,0,0,0-.71.37c-.69.46-1.31,1-2,1.38a12.64,12.64,0,0,1-3.23,1.2C32.6,31.77,33,34,32,34.88s-3.37,1.28-4.47.31a3.41,3.41,0,0,1-1.25.7,2.26,2.26,0,0,1-1.62.08A3.26,3.26,0,0,0,27.78,34a3.31,3.31,0,0,0-.12-2.68,3.35,3.35,0,0,0-4.42-1.05A10,10,0,0,0,21.88,35c-.62-3.54,1.25-5.71,2.82-7.48s3.77-3.4,4.06-6.59c.37.15.48.58.62,1a5.66,5.66,0,0,1,.2.58c.05.2.06.45.24.56-.09-.92,0-2-.08-2.92a4.63,4.63,0,0,0-.63-1.89c.38.15.56.57.78.91a3.31,3.31,0,0,0,.58.69c.06.06.11.17.2.13-.4-.87-.61-1.82-1-2.64a6.33,6.33,0,0,0-1.16-1.59,2.08,2.08,0,0,1-.45-.44,3.5,3.5,0,0,0,1.52.18c-1-.55-1.89-1.11-2.92-1.58A8.92,8.92,0,0,0,23,13c-.09-.57.4-1,.34-1.44a1.83,1.83,0,0,0-1.32.24,3.62,3.62,0,0,0-1.65,1.74c-.18.37-.24.84-.59,1.09-.21-.16-.14-.62-.45-.63s-.31.21-.36.34a2.37,2.37,0,0,0,0,1.09c.05.24.2.46.22.67,0,.39-.06.91.09,1.18a2.65,2.65,0,0,0-.25,2.93c.39-.46.52-1.5,1.27-1.62.23,0,.5,0,.74,0a3.71,3.71,0,0,0,1-.33A13.57,13.57,0,0,1,25,17c.87-.15,1.22.68,1.41,1.29a4.5,4.5,0,0,1-.74,3.91A7.18,7.18,0,0,1,24,23.91a25.27,25.27,0,0,1-4.36,2.41,10.56,10.56,0,0,0-5.25,4.89A8.55,8.55,0,0,0,13.75,34c-.43,4.65,1.56,7.43,3.72,9.68,1.06,1.1,2.31,2.26,3.47,3.3.89.79,1.8,1.57,2.65,2.42.24.24.7.63.78.93a3.57,3.57,0,0,1-.11,1.27c-.3,2.32-.6,4.63-1,6.86-.11.69-.11,1.47-.64,1.67s-.9-.15-1.43-.13-.77.33-1.11.37-.31,0-.55,0-.08.43-.1.72c.33-.35,1.1-.18,1.74-.25.44-.05.77-.19,1.07-.24-.33.53-1.39.41-2.16.51a7.08,7.08,0,0,0-.73.18c-.41.07-1.09,0-1.27.31a2.37,2.37,0,0,0-.07,1,2.31,2.31,0,0,0,.14,1c.15.08.3,0,.43.07s.24.26.39.39c.15-.21,0-.52-.14-.66.28-.27-.1-.58,0-.89s.7-.24,1-.36.63-.34,1-.45A4.66,4.66,0,0,0,22,61.28c-.1.25-.39.28-.6.49s-.14.26-.24.38c-.28.29-1.12.5-1.21.93a2.54,2.54,0,0,0,.43,1.34c.28.35.74.33,1.17.4a.69.69,0,0,1-.17-.52c-.14-.23-.62-.48-.6-.86,0-.22.39-.48.62-.65l.73-.53c.53-.4,1-.85,1.41-1.14s.7-.26.91-.42.24-.48.49-.51.5.24.87.18.33-.44.62-.34a1,1,0,0,1-.89.63,3.29,3.29,0,0,0-.44,0c-.2,0-.41.38-.65.53s-.64.18-.89.32-.38.6-.63.86-.4.24-.41.43.19.52.17.82a3,3,0,0,0-.07.49,1.06,1.06,0,0,0,1,.89c-.31-.2-.35-1.37.12-1.51.08,0,.2,0,.31,0,.51-.11.6-.75,1.13-1a2.9,2.9,0,0,0,.38-.11c.18-.1.29-.34.47-.46s.56-.25.78-.41.3-.36.49-.44a1.36,1.36,0,0,1-.88.91,1.58,1.58,0,0,0-.39.2c-.15.17-.13.5-.23.69-.16.35-.65.51-.66.85,0,.18.14.29.15.47s-.07.27-.07.42a.72.72,0,0,0,.76.67,1,1,0,0,1-.13-.9c.74-.09.68-1,1-1.55a4.33,4.33,0,0,1,.83-.73c.83-.66,1.75-1.48,3.13-1.25.08.14,0,.39.14.51.34,0,.78-.09.66.37a.5.5,0,0,1,.12.7c0,.07-.14.14-.12.2.51,0,.62-.32.83-.61s.27-.21.29-.4a.69.69,0,0,0-.15-.48C32.41,60.7,32.2,60,31.87,59.79ZM49.21,33.08a16.71,16.71,0,0,0,1.11-5.79A13,13,0,0,1,46.85,37.6,18.45,18.45,0,0,1,38.41,43C43.08,40.83,47.24,38,49.21,33.08ZM24.68,61.84c-.14.19-.14.34-.29.44-.34.23-.94-.09-1.2.2a.61.61,0,0,1,.51-.42c.14,0,.27.07.42,0,.31-.06.53-.6.81-.82.57-.48,1.64-.29,1.91-1C26.64,61.25,25.25,61.1,24.68,61.84Zm2.52-2.37a.8.8,0,0,1-.71.21c-.13-.06-.08-.19-.21-.25a14.93,14.93,0,0,1-1.51.09c-.12,0-.39-.07-.44-.18a1.76,1.76,0,0,1,0-.71c.09-.69.17-1.44.29-2.07a3.29,3.29,0,0,0,1.71-.27,1.12,1.12,0,0,0,.49-.6,2.61,2.61,0,0,1-2.07-.42c.33-1.32.51-2.78.81-4.12.84.42,2.25.25,2.31-.78a1.63,1.63,0,0,1-.87.25,1.24,1.24,0,0,1-.68-.27A12.25,12.25,0,0,1,25.26,49l-.56-.67c-.15-.18-.41-.6-.58-.64s-.53.12-.77,0a5.59,5.59,0,0,1,1-.46,16.83,16.83,0,0,0-1.23-1.65c-.52,0-1,0-1.57,0a14,14,0,0,1,2.19-.6c0,.1-.26.27-.29.44a20.4,20.4,0,0,0,4.38,4.37c.18.14.63.42.67.58a5.56,5.56,0,0,1-.16,1.15c-.06.39-.17.76-.22,1.07C27.76,54.89,27.55,57.27,27.2,59.47Z" style="fill: #fff"/>
        <path d="M25.21,18.88c.1.35,0,1.31.41,1.34A.48.48,0,0,0,26,20a2.5,2.5,0,0,0-.45-2.65.81.81,0,0,0-.46-.07c-1,.08-1.53.83-2.45,1.05a1.87,1.87,0,0,1,.92,1.55c.06.43,0,1,.26,1.23a.63.63,0,0,0,.8,0c.52-.36.59-1.58.33-2.33-.12-.39-.4-.62-.48-.89C24.92,18,25.09,18.42,25.21,18.88Z" style="fill: #fff"/>
        <path d="M11.26,25.38c-.71,3.83-.1,8.22,1.54,10.55a1.4,1.4,0,0,0,.38.42,10.73,10.73,0,0,1,0-3.05,5,5,0,0,0,.14-1c0-.38-.23-.83-.32-1.33a2.87,2.87,0,0,1,0-1.51c.25-.54,1.09-.46,1.27-1.1a8.59,8.59,0,0,1-3-3S11.3,25.35,11.26,25.38Z" style="fill: #fff"/>
        <path d="M53.37,34.5a7.73,7.73,0,0,0-.13,1.09c-.1,1.13-.14,2.2-.32,3.26a5.9,5.9,0,0,1-1.5,3.24c-.75.81-1.76,1.45-2.45,2.32a3.25,3.25,0,0,0-.36,3.38s0,.14.11.11a4,4,0,0,1,.8-2.78,16.38,16.38,0,0,1,1.94-1.71,7.27,7.27,0,0,0,2.36-4.92c.11-1.14.12-2.29.31-3.32a7.14,7.14,0,0,1,1.16-2.49,9.31,9.31,0,0,0,1.13-2.49,7.45,7.45,0,0,0,0-3.29s0,0,0,0A15,15,0,0,1,56,29.14a11.93,11.93,0,0,1-1.7,3.61A5.91,5.91,0,0,0,53.37,34.5Z" style="fill: #fff"/>
        <path d="M13.62,31.64a6.65,6.65,0,0,1,2.07-3.3s0-.05,0-.05a1.18,1.18,0,0,1-.89.18c-.15.58-1,.66-1.27,1.05S13.47,31.08,13.62,31.64Z" style="fill: #fff"/>
        <path d="M57.36,29.18a25.47,25.47,0,0,1-1.07,2.54c-.4.76-.87,1.48-1.27,2.27-.83,1.66-.54,4.06-1,6.06s-1.7,3-2.92,4.16a5.88,5.88,0,0,0-1.65,1.89,5,5,0,0,0-.31,1.45A10.81,10.81,0,0,1,49,49.21a1.79,1.79,0,0,1-2,1.39,2.31,2.31,0,0,1-.95-.39c-.16-.11-.5-.42-.43-.68s.4-.27.67-.2c.45.11.84.15.94-.29.13-.64-.67-1.14-1.36-1.12a1.44,1.44,0,0,0-1.2.89,1.83,1.83,0,0,0,.51,1.83,2.33,2.33,0,0,0,1.69.76,2.65,2.65,0,0,0,2.82-2.07,16.87,16.87,0,0,0,.12-1.83c.12-1.58,1-2.19,1.91-3a8.5,8.5,0,0,0,2.56-3.43,10.6,10.6,0,0,0,.44-2.56c.1-.92.21-1.83.32-2.67.33-2.53,2.38-3.85,2.35-6.63C57.37,29.19,57.37,29.18,57.36,29.18Z" style="fill: #fff"/>
        <path d="M27.8,34.9c1.36.92,4.18.49,4.36-1.24.15-1.47-.95-1.95-2.09-2.19.95-.27,2.21-.51,3.16-.88.31-.12.77-.26.8-.56.06-.48-.37-.57-.85-.53-.89.07-1.79.37-2.78.53a13.29,13.29,0,0,1-3.07.2c1.09.52,1.54,2.94.82,4.21C28.06,34.61,27.86,34.73,27.8,34.9Z" style="fill: #fff"/>
        <path d="M3.45,38.22c1,1.92,1.4,4.17,2.27,6.21a9.06,9.06,0,0,0,4,4.5,40.33,40.33,0,0,0,4.36,2,5.68,5.68,0,0,1,2.13,1.21,6.17,6.17,0,0,1,2.34-1.94c.24-.13.78-.3.91-.51.41-.61-.33-1.09-.87-1-.82.07-1.49.88-2,1.37-.12.12-.44.52-.61.54a2.6,2.6,0,0,1-.71-.29c-.75-.31-1.58-.63-2.18-.89a14.59,14.59,0,0,1-5-3.16,8.22,8.22,0,0,1-1.44-2.65,41.2,41.2,0,0,0-2.36-5.81,17.16,17.16,0,0,0-1.67-2.4A6.87,6.87,0,0,0,0,33.13a10.82,10.82,0,0,0,1.76,2.56A15.93,15.93,0,0,1,3.45,38.22Z" style="fill: #fff"/>
        <path d="M17.8,55.27a2.41,2.41,0,0,1-.88-1.09c-.24-.46-.38-1-.6-1.4a2.31,2.31,0,0,0-.94-.89,24.14,24.14,0,0,0-2.72-1.14C9.9,49.64,7.4,48.39,6,45.88A31.81,31.81,0,0,1,3.9,40.25,9.27,9.27,0,0,0,.8,35.62s0,0,0,0a19.47,19.47,0,0,1,2.45,5.47,16.85,16.85,0,0,0,2.15,5.73c1.86,2.72,5.15,4.07,8.33,5.44a10.85,10.85,0,0,1,1.38.61c.59.36.82,1.17,1.13,1.78A2.82,2.82,0,0,0,17.5,56,2.83,2.83,0,0,0,21,54.82a2.25,2.25,0,0,0-.85-2.93,1.93,1.93,0,0,0-2.82.82,1,1,0,0,0,.76,1.42c.51,0,.77-.37,1.24-.17a.59.59,0,0,1,.29.6C19.61,55.33,18.53,55.62,17.8,55.27Z" style="fill: #fff"/>
        <path d="M52,45.88a14.66,14.66,0,0,0,2.6-3.1c.92-1.66.84-4.07,1.62-6,0,0,0,0,0,0-.83.78-1,2.09-1.32,3.4a9.19,9.19,0,0,1-2.84,4.59,6.39,6.39,0,0,0-1.78,1.93,6.36,6.36,0,0,0-.18,1.87,4.51,4.51,0,0,1-.31,1.56,3,3,0,0,1-5.66-.33,2.61,2.61,0,0,0,1.09,2.38,3.86,3.86,0,0,0,3.7,0,3.61,3.61,0,0,0,1.85-2.7,19.61,19.61,0,0,1,.06-2.07C51,46.67,51.53,46.36,52,45.88Z" style="fill: #fff"/>
        <path d="M11.37,61.92c.08-.77.71-1.21,1-1.82a1.56,1.56,0,0,0,.09-.34,2.89,2.89,0,0,0-1.85-3.33c-1.27-.56-2.85-.78-3.47-1.87-.27-.49-.39-1-.6-1.5a11.39,11.39,0,0,0-2.67-3.67,10,10,0,0,1-2-2.16A29.79,29.79,0,0,0,.27,44.52s0,0,0,0a23.36,23.36,0,0,0,1.21,2.93,9.39,9.39,0,0,0,1.8,2.27,11.59,11.59,0,0,1,1.82,2.23A10.42,10.42,0,0,1,6,54.05c.08.25.11.54.22.8a4.46,4.46,0,0,0,2.36,1.91c1.07.48,2.44.8,2.74,2s-.76,2-1,2.83a1.63,1.63,0,0,0,.09,1.12c.09.14.45.47.77.31S11.33,62.3,11.37,61.92Z" style="fill: #fff"/>
        <path d="M20.94,56.92a4.42,4.42,0,0,0,1.65-2.14,3.48,3.48,0,0,0,.18-1.67c-.06-.4-.28-1.22-.83-1-.25.09-.19.67-.17,1.09a3.4,3.4,0,0,1-.56,2.15A3.17,3.17,0,0,1,19,56.65a2.88,2.88,0,0,1-2.58-1,15.64,15.64,0,0,1-1-1.81,4.24,4.24,0,0,0-2.18-1.29,29.06,29.06,0,0,1-4.34-2,15,15,0,0,1-4.36-4s0,0,0,0c1.58,3.51,4.42,5.3,8,6.7a6.12,6.12,0,0,1,2,.93,13.12,13.12,0,0,1,1,1.85,3.68,3.68,0,0,0,2.28,1.5A4.29,4.29,0,0,0,20.94,56.92Z" style="fill: #fff"/>
        <path d="M10.93,59c-.08-.69-.64-1-1.2-1.23-1.83-.92-3.62-1.44-4.12-3.63A8.45,8.45,0,0,0,3.5,50.42s0,0,0,0A29.1,29.1,0,0,1,5,53.6c.13.38.16.79.29,1.27a4.23,4.23,0,0,0,2.09,2.4c.42.26.91.55,1.42.83s1.14.49,1.25,1c.17.78-.6,1.12-.56,1.76C10.4,61.09,11,59.82,10.93,59Z" style="fill: #fff"/>
        <path d="M56.38,51.8c-.37.55-.86,1.1-1.29,1.69A5.66,5.66,0,0,1,53.68,55a9,9,0,0,1-2.07.83A3.23,3.23,0,0,0,49.9,57,17.47,17.47,0,0,0,49,58.65a7.28,7.28,0,0,1-1.12,1.45c-.39.38-.89.76-1.31,1.22a3.8,3.8,0,0,0-1,1.58,1,1,0,0,0,.11.72,1.36,1.36,0,0,0,.83-.49,14.64,14.64,0,0,0,1.89-2.2,10.09,10.09,0,0,0,1.06-1.65,10.94,10.94,0,0,1,1-1.79c1-1.24,3-1.39,4.19-2.38l0,0a6.23,6.23,0,0,0,1-1.5,5.77,5.77,0,0,0,.76-1.75S56.4,51.8,56.38,51.8Z" style="fill: #fff"/>
        <path d="M37.9,58.58a6.15,6.15,0,0,1,1.94-.26,4.57,4.57,0,0,0,2.72-1,3.76,3.76,0,0,0,.91-2.21,4.57,4.57,0,0,1,.4-1.15c.25-.49.66-.81.67-1.47,0,0,0,0,0,0-.24.26-.47.54-.71.79s-.51.4-.71.64a2.19,2.19,0,0,0-.4,1A4.93,4.93,0,0,1,42.47,56c-.6,1.31-2.13,1.57-3.9,1.69a3.4,3.4,0,0,0-1.36.17c-.23.13-.41.44-.62.65a3.6,3.6,0,0,1-2.69,1.12,3.63,3.63,0,0,0,3.45-.58A2.86,2.86,0,0,1,37.9,58.58Z" style="fill: #fff"/>
        <path d="M37,57.4a6.26,6.26,0,0,1,1.31-.11c1.9-.13,3.57-.52,3.83-2.26,0,0,0,0,0,0a4.08,4.08,0,0,1-3.13,1.52c-.46,0-1,0-1.49,0a2.75,2.75,0,0,0-1.23.4c-.61.39-.9,1-1.47,1.31a2.25,2.25,0,0,1-3.38-1.64c-.76,2.58,2.55,3,4.09,2C36,58.25,36.34,57.62,37,57.4Z" style="fill: #fff"/>
        <path d="M12.31,61.06a2.06,2.06,0,0,1,1.35.24,4.88,4.88,0,0,0,.39-2,4.22,4.22,0,0,0-1.6-3,6.38,6.38,0,0,0-3.62-1.05s0,0,0,0a13,13,0,0,0,1.63.62,4.54,4.54,0,0,1,1.4.72A3.11,3.11,0,0,1,13,58.71a3.61,3.61,0,0,1-.46,1.95A.86.86,0,0,0,12.31,61.06Z" style="fill: #fff"/>
        <path d="M32.89,55.52a1,1,0,0,0-1,1.09A1.36,1.36,0,0,0,33.34,58c1.24.08,1.57-.83,2.45-1.35a7,7,0,0,1,3-.52,1.22,1.22,0,0,0,.67-.24,16.73,16.73,0,0,0-3.51.09,3,3,0,0,0-1.2.65,2,2,0,0,1-1.25.62A1,1,0,0,0,32.89,55.52Z" style="fill: #fff"/>
        <path d="M41.33,60.48a6.6,6.6,0,0,1,1.07.82A6.53,6.53,0,0,1,45,58.48C43,58.25,42.45,59.75,41.33,60.48Z" style="fill: #fff"/>
        <path d="M14.09,61.5c0,.15.21.35.29.49a2.7,2.7,0,0,1,.29.87,3.1,3.1,0,0,0-.22-3.39,3.11,3.11,0,0,1-.1,1.3C14.29,61,14.08,61.32,14.09,61.5Z" style="fill: #fff"/>
        <path d="M13.07,64.6c.85,0,1.35-.8,1.24-1.74a1.79,1.79,0,0,0-1.54-1.45c-.43,0-.67,0-.84.29.66-.07,1.3.09,1.31.6a.7.7,0,0,1-.17.49c-.26.26-.71.05-1.08.23a.64.64,0,0,0-.21.71A1.36,1.36,0,0,0,13.07,64.6Z" style="fill: #fff"/>
        <path d="M11.06,35.19a14.42,14.42,0,0,1-8.24-6.67c-.11-.23-.18-.49-.35-.61A11.13,11.13,0,0,0,3.38,32a7.89,7.89,0,0,0,2.25,2.84,14.47,14.47,0,0,0,7,3.21,11,11,0,0,1-7.77-2.92,9.56,9.56,0,0,0,3.36,3.92,7.56,7.56,0,0,0,2.39,1.2,13.32,13.32,0,0,0,3.31.29c-.32.5-1.18.52-1.93.51a9.54,9.54,0,0,0,3.16.56,14,14,0,0,1-1.52-3,7.19,7.19,0,0,0-.33-1.17c-.07-.14-.22-.27-.31-.41a12,12,0,0,1-1.74-3.4,17.71,17.71,0,0,1-.6-7.79,3.13,3.13,0,0,0,.13-.85,3.18,3.18,0,0,0-.42-.75,12.77,12.77,0,0,1-1.27-7c.21-2.65,1-5.14,2.59-6.43.1-.09.29-.15.26-.25a5,5,0,0,0-3.6,1.29A5.42,5.42,0,0,0,6.52,15a15.69,15.69,0,0,0,.56,7.23,18,18,0,0,0,2.69,5.52A13.44,13.44,0,0,1,6,21.08c-.68-2.74-.78-6.77.78-8.68,0,0,.18-.13.09-.15a5,5,0,0,0-3.32,4.07A12.4,12.4,0,0,0,4,22.76a21.66,21.66,0,0,0,6,8.81A14.44,14.44,0,0,1,5.28,27a15.64,15.64,0,0,1-2.19-4.74c-.17-.64-.22-1.29-.35-2-.19.1-.18.35-.22.53a10.56,10.56,0,0,0-.32,2A9.79,9.79,0,0,0,4.43,29.7,20.81,20.81,0,0,0,11.06,35.19Z" style="fill: #fff"/>
        <path d="M55.33,51.2c-.49.58-.93,1.17-1.36,1.75a4,4,0,0,1-1.69,1.43,7.54,7.54,0,0,1-1.13.42,8.74,8.74,0,0,0-1.21.38,2.54,2.54,0,0,0-1.11,1.2,12.16,12.16,0,0,1-1.67,2.41c-.94.94-2.19,1.44-2.87,2.53a3.78,3.78,0,0,0-.49,1.6c-.06.51-.23,1.66.13,1.81a.76.76,0,0,0,.78-.31c.25-.45,0-1,.09-1.54C45,61.6,46.22,60.73,47,60a8.67,8.67,0,0,0,1.59-1.8c.2-.32.4-.7.62-1.07a4.86,4.86,0,0,1,.67-1,5.85,5.85,0,0,1,2-.83,5.75,5.75,0,0,0,2.65-2c.21-.3.38-.63.58-.95.6-1,1.15-1.83,1.83-2.79,0,0,0,0,0,0A13.59,13.59,0,0,0,55.33,51.2Z" style="fill: #fff"/>
        <path d="M44.8,59.94c.31-.23.65-.38.94-.57A7.71,7.71,0,0,0,48,57.07a6.68,6.68,0,0,1,1.55-2.16c1.08-.78,2.8-.67,3.68-1.76,0,0,0,0,0,0l-3,1a3.6,3.6,0,0,0-1.45.65,10.1,10.1,0,0,0-1.26,1.8,6.79,6.79,0,0,1-1.38,1.69c-.48.35-1,.59-1.41.89a5.44,5.44,0,0,0-2.22,3.56,6.79,6.79,0,0,1-.22.94,1.66,1.66,0,0,1-.85.84c-.19.1-.41.14-.44.34-.08.51.75.78,1.26.71a1.43,1.43,0,0,0,1-.93c.16-.56,0-1.48.13-2.12A4.39,4.39,0,0,1,44.8,59.94Z" style="fill: #fff"/>
        <path d="M14.62,58.61c.7,1,1.47,3.16.56,4.49-.15.23-.41.32-.54.54a3.39,3.39,0,0,0-.15.45,1.42,1.42,0,0,1-1,.86,2.28,2.28,0,0,1-1.45-.29,2.13,2.13,0,0,0,.45.45,2.75,2.75,0,0,0,3-.49,3.91,3.91,0,0,0,.78-3.1A4,4,0,0,0,14.62,58.61Z" style="fill: #fff"/>
        <path d="M41.71,62.92a.93.93,0,0,0-1-1.06c-.49.09-.46,1-.93,1.06a.59.59,0,0,1-.62-.44c-.1-.54.41-1,.85-1.2a2.28,2.28,0,0,1,1.84.11,2.52,2.52,0,0,0-2.13-.89,2.41,2.41,0,0,0-2.17,2.18c0,1.09,1.45,1.75,2.5,1.65A2,2,0,0,0,41.71,62.92Z" style="fill: #fff"/>
        <path d="M19.5,8.64a4.17,4.17,0,0,0,3,1,11.12,11.12,0,0,0,1.87-.1c.56-.11,1.08-.27,1.63-.38a34.58,34.58,0,0,1,10.81-.87c7.24.76,10.64,5.37,11.93,12.06C47,15.6,45,11.2,39.75,9.93c-2-.49-5-.19-5.18,1.85a2,2,0,0,0,.93,2,5.5,5.5,0,0,0,2.22.75c1,.15,1.94,0,2.83.16a7.38,7.38,0,0,1,5.27,3.65,17.6,17.6,0,0,1,1.75,3.47,2.86,2.86,0,0,0,.22.54c.1.06.2-.15.31-.25.88-.79,2.32-.43,3.18.11a5.69,5.69,0,0,1,2.47,4.49,37.39,37.39,0,0,0,1.34-8,24.37,24.37,0,0,0-.92-8.39,12.79,12.79,0,0,0-6.12-7.89c-.88-.47-2.49-1.16-3.74-.7a1.16,1.16,0,0,0-.66.56c-.31.83.39,1.35.82,1.76A22.07,22.07,0,0,1,51.19,15a18,18,0,0,1,.49,5.79,21.14,21.14,0,0,0-4.23-12A21.41,21.41,0,0,0,29.06,0c-.64,0-1.3.1-1.88.18A11.34,11.34,0,0,0,20.27,3.3a6.52,6.52,0,0,0-1.55,2.45A2.65,2.65,0,0,0,19.5,8.64Zm21.83,4.28A12.53,12.53,0,0,0,38,12.14a7.39,7.39,0,0,1,6.23,2.09,12.17,12.17,0,0,1,3.22,5.14C46,16.58,44.3,14.13,41.33,12.92Zm6.94-7.55c2,1.29,3.3,3.57,4.16,6.21A21.18,21.18,0,0,1,53,20.86a27.29,27.29,0,0,0-.95-9.15A15.16,15.16,0,0,0,48.27,5.37ZM26.4,4.71A17.19,17.19,0,0,1,30.64,4,18.72,18.72,0,0,1,42.38,6.93a17.44,17.44,0,0,1,7.7,11.91c-1.46-5.07-4-9-8.13-11.51A20.59,20.59,0,0,0,30.2,4.41a31.44,31.44,0,0,0-3.38.3l-.54.08C26,4.82,26.14,4.78,26.4,4.71Z" style="fill: #fff"/>
      </g>
    </g>
  </g>
</svg>
