<svg xmlns="http://www.w3.org/2000/svg" xmlns:xlink="http://www.w3.org/1999/xlink" viewBox="0 0 423.22 95.41"><defs><style>.cls-1{fill:none;}.cls-2{fill:#fff;}.cls-3{clip-path:url(#clip-path);}.cls-4{fill:url(#radial-gradient);}</style><clipPath id="clip-path"><path class="cls-1" d="M95.42,47.71A47.71,47.71,0,1,1,47.71,0,47.71,47.71,0,0,1,95.42,47.71Z"/></clipPath><radialGradient id="radial-gradient" cx="25.87" cy="16.18" r="71.02" gradientUnits="userSpaceOnUse"><stop offset="0" stop-color="#00b9ef"/><stop offset="1" stop-color="#003894"/></radialGradient></defs><title>アセット 1</title><g id="レイヤー_2" data-name="レイヤー 2"><g id="レイヤ_1" data-name="レイヤ− 1"><path class="cls-2" d="M112.53,33.57h8V56.76a13.15,13.15,0,0,0,.92,5.68c1,2.12,3,3.17,6.23,3.17s5.24-1,6.2-3.17a13.15,13.15,0,0,0,.92-5.68V33.57h8V56.78c0,4-.62,7.14-1.86,9.37q-3.48,6.15-13.27,6.15t-13.3-6.15c-1.24-2.23-1.87-5.36-1.87-9.37Z"/><path class="cls-2" d="M177.84,33.57v6.69H166.55V71.33h-7.94V40.26H147.26V33.57Z"/><path class="cls-2" d="M197,51.39a5.41,5.41,0,1,1-5.4-5.4A5.39,5.39,0,0,1,197,51.39Z"/><path class="cls-2" d="M212.28,37.52a15.54,15.54,0,0,1,11.61-4.66q9.42,0,13.78,6.25a13.58,13.58,0,0,1,2.59,7h-7.89a10.66,10.66,0,0,0-1.94-4.1q-2.1-2.46-6.24-2.46a7.7,7.7,0,0,0-6.65,3.47q-2.43,3.48-2.43,9.83t2.56,9.51a8.06,8.06,0,0,0,6.53,3.16,7.4,7.4,0,0,0,6.19-2.71,12.06,12.06,0,0,0,2-4.38h7.84a17,17,0,0,1-5.18,10,15.08,15.08,0,0,1-10.68,3.87q-8.06,0-12.67-5.23T207,52.76Q207,42.88,212.28,37.52Z"/><path class="cls-2" d="M257.35,33.57h8.93l13.35,37.76h-8.55l-2.49-7.76H254.68l-2.55,7.76h-8.25Zm-.52,23.49h9.67l-4.77-14.85Z"/><path class="cls-2" d="M308.63,34.55a9.38,9.38,0,0,1,3.53,2.64,11.72,11.72,0,0,1,1.9,3.17,10.73,10.73,0,0,1,.7,4,11.23,11.23,0,0,1-1.36,5.29,7.63,7.63,0,0,1-4.48,3.68,7.06,7.06,0,0,1,3.7,3,12.49,12.49,0,0,1,1.09,5.9v2.54a19,19,0,0,0,.21,3.51,3.13,3.13,0,0,0,1.45,2.15v1h-8.71c-.24-.84-.4-1.52-.51-2a18.36,18.36,0,0,1-.33-3.25l-.05-3.51q0-3.61-1.25-4.81c-.8-.81-2.3-1.21-4.49-1.21h-7.71V71.33h-7.71V33.57h18.06A16.59,16.59,0,0,1,308.63,34.55Zm-16.31,5.58V50.27h8.49a9.08,9.08,0,0,0,3.8-.61q2.24-1.08,2.23-4.25,0-3.44-2.16-4.61a7.75,7.75,0,0,0-3.65-.67Z"/><path class="cls-2" d="M350.23,40.26h-20v8h18.34v6.55H330.25v9.71h20.9v6.79H322.54V33.57h27.69Z"/><path class="cls-2" d="M385.21,40.26h-20v8h18.33v6.55H365.24v9.71h20.89v6.79h-28.6V33.57h27.68Z"/><path class="cls-2" d="M416.47,34.55A9.42,9.42,0,0,1,420,37.19a11.44,11.44,0,0,1,1.89,3.17,10.53,10.53,0,0,1,.7,4,11.33,11.33,0,0,1-1.35,5.29,7.62,7.62,0,0,1-4.49,3.68,7,7,0,0,1,3.7,3,12.37,12.37,0,0,1,1.09,5.9v2.54a19,19,0,0,0,.21,3.51,3.17,3.17,0,0,0,1.46,2.15v1h-8.71c-.24-.84-.41-1.52-.51-2a18.37,18.37,0,0,1-.34-3.25l0-3.51c0-2.41-.45-4-1.25-4.81s-2.3-1.21-4.5-1.21h-7.7V71.33h-7.71V33.57h18.06A16.53,16.53,0,0,1,416.47,34.55Zm-16.3,5.58V50.27h8.49a9,9,0,0,0,3.79-.61q2.24-1.08,2.24-4.25,0-3.44-2.16-4.61a7.78,7.78,0,0,0-3.65-.67Z"/><g class="cls-3"><path class="cls-4" d="M95.42,47.71A47.71,47.71,0,1,1,47.71,0,47.71,47.71,0,0,1,95.42,47.71Z"/><path class="cls-2" d="M68,38.15C88.13,54.29,94.33,72.34,83,79.94a23.8,23.8,0,0,0,2.65-1C100,72.28,94.32,53,73,35.86s-50.33-25.63-64.69-19A15.76,15.76,0,0,0,6,18.17C21,13.55,47.89,22,68,38.15Z"/><path class="cls-2" d="M69.66,1C53,1.87,32,20,22.64,41.45S19.28,79.63,35.93,78.77s37.71-19,47-40.44S86.31.15,69.66,1ZM42.42,63.82c-12.2.63-16.56-11.6-9.74-27.33S54.92,7.5,67.12,6.87,83.67,18.48,76.85,34.2,54.61,63.19,42.42,63.82Z"/></g></g></g></svg>