<svg xmlns="http://www.w3.org/2000/svg" viewBox="0 0 603 128.55"><defs><style>.cls-1{fill:#fff;}</style></defs><title>アセット 1</title><g id="レイヤー_2" data-name="レイヤー 2"><g id="レイヤー_1-2" data-name="レイヤー 1"><path class="cls-1" d="M152,5.27h39.68V16.41h-26.2V33.83h24V45h-24V64.83h26.39V76H152Z"/><path class="cls-1" d="M196.27,54.29V43.15H221.6V54.29Z"/><path class="cls-1" d="M282.38,18.94A42.21,42.21,0,0,0,265,15.19c-15.7,0-24.37,11.15-24.37,25.63S249.15,66,263.5,66a34.67,34.67,0,0,0,8.86-1V46.59H258.11V35.45h27.16V73.54c-7.13,2-14.55,3.65-21.77,3.65-21.77,0-36.89-11.45-36.89-35.36,0-24.21,14.06-37.78,36.89-37.78A63.49,63.49,0,0,1,283.25,7Z"/><path class="cls-1" d="M340,76H327.74V68.88h-.19a20.34,20.34,0,0,1-16.28,8.31c-11.75,0-16.86-8.72-16.86-20.47V23.8h12.91V51.66c0,6.38.09,15,8.38,15,9.34,0,11.37-10.63,11.37-17.32V23.8H340Z"/><path class="cls-1" d="M351.62,26.54a42.58,42.58,0,0,1,17.24-3.95c15.12,0,21.38,6.58,21.38,22v6.69c0,5.26.1,9.21.2,13.06s.29,7.6.58,11.65H379.65a68,68,0,0,1-.58-7.8h-.19c-3,5.78-9.44,9-15.31,9-8.77,0-17.34-5.58-17.34-15.5,0-7.8,3.56-12.36,8.47-14.89s11.27-3,16.67-3h7.12c0-8.41-3.56-11.24-11.17-11.24A25.1,25.1,0,0,0,352,38.19Zm15.12,40.72a10.8,10.8,0,0,0,9.06-4.66c2.12-2.94,2.69-6.69,2.69-10.74h-5.58c-5.78,0-14.35,1-14.35,9C358.56,65.33,362.12,67.26,366.74,67.26Z"/><path class="cls-1" d="M398.43,23.8h11.46V35.66h.19c.58-4.87,5.88-13.07,13.59-13.07a13.51,13.51,0,0,1,3.94.4V36.67a12.53,12.53,0,0,0-5.78-1.12c-10.49,0-10.49,13.78-10.49,21.28V76H398.43Z"/><path class="cls-1" d="M466.23,70.1H466c-3.85,5.06-9.15,7.09-15.22,7.09C435.61,77.19,430,64,430,49.74s5.59-27.15,20.8-27.15c6.46,0,11,2.33,14.84,7.29h.19V0h12.91V76H466.23Zm-11.84-3.45c8.57,0,11.36-9.52,11.36-16.91s-3.27-16.62-11.56-16.62S443.5,42.75,443.5,49.74C443.5,56.93,445.91,66.65,454.39,66.65Z"/><path class="cls-1" d="M487.52,1.32h12.9v13h-12.9Zm0,22.48h12.9V76h-12.9Z"/><path class="cls-1" d="M511.4,26.54a42.58,42.58,0,0,1,17.24-3.95c15.13,0,21.39,6.58,21.39,22v6.69c0,5.26.09,9.21.19,13.06s.29,7.6.58,11.65H539.43a68,68,0,0,1-.58-7.8h-.19c-3,5.78-9.44,9-15.32,9-8.76,0-17.33-5.58-17.33-15.5,0-7.8,3.56-12.36,8.47-14.89s11.27-3,16.67-3h7.13c0-8.41-3.57-11.24-11.18-11.24a25.1,25.1,0,0,0-15.31,5.67Zm15.12,40.72a10.8,10.8,0,0,0,9.06-4.66c2.12-2.94,2.7-6.69,2.7-10.74h-5.59c-5.78,0-14.35,1-14.35,9C518.34,65.33,521.9,67.26,526.52,67.26Z"/><path class="cls-1" d="M557.44,23.8h12.23v7.09h.19c4-6,9.54-8.3,16.28-8.3,11.75,0,16.86,8.71,16.86,20.46V76H590.09V48.11c0-6.38-.09-15-8.38-15-9.34,0-11.36,10.64-11.36,17.32V76H557.44Z"/><path class="cls-1" d="M294.56,128.08H291.5l-6.61-24.33h-.07l-6.72,24.33H275l-7.46-27.4h2.65L276.61,125h.07l6.68-24.34h3.1L293,125h.07l6.54-24.34h2.46Z"/><path class="cls-1" d="M318.91,127.46a15,15,0,0,1-5.52,1.09c-6.31,0-8.66-4.47-8.66-10.48s3.21-10.48,8-10.48c5.37,0,7.58,4.56,7.58,9.93v1.26h-13c0,4.24,2.17,7.65,6.27,7.65a11.73,11.73,0,0,0,5.34-1.49Zm-1.16-10.8c0-3.49-1.34-7-4.85-7s-5.6,3.65-5.6,7Z"/><path class="cls-1" d="M354.79,115.6h-6.05v-2.35h8.63v13.62a18.78,18.78,0,0,1-8.1,1.68c-8.22,0-13.14-5.69-13.14-14.17,0-8.32,5.08-14.17,13.14-14.17,2,0,5.22.36,7,1.3L356,104a13.14,13.14,0,0,0-6.68-1.45c-6.76,0-10.57,5-10.57,11.81s3.7,11.82,10.57,11.82c1.6,0,4.29-.2,5.52-1Z"/><path class="cls-1" d="M378.5,123.37c0,1.53,0,3.1.15,4.71h-2.27v-3.57h-.08a6,6,0,0,1-6.16,4c-4.7,0-6.49-3.29-6.49-7.69v-12.8H366v12.17c0,3.77,1.27,6.2,4.52,6.2,4.29,0,5.63-4,5.63-7.3V108.06h2.35Z"/><path class="cls-1" d="M396.09,124.86H396a6.65,6.65,0,0,1-6,3.69c-5.41,0-6.27-3.84-6.27-5.65,0-6.71,6.79-7,11.72-7h.45v-1c0-3.41-1.16-5.14-4.33-5.14a9.71,9.71,0,0,0-5.6,1.65V109a14.35,14.35,0,0,1,5.6-1.38c4.7,0,6.68,2.24,6.68,7.46v8.83a29.35,29.35,0,0,0,.19,4.2h-2.32Zm-.22-6.86h-.67c-4.07,0-8.92.43-8.92,4.82,0,2.63,1.79,3.61,4,3.61,5.53,0,5.64-5.06,5.64-7.22Z"/><path class="cls-1" d="M404.57,112.54a37.8,37.8,0,0,0-.15-4.48h2.36v3.85h.07c.86-2.24,2.46-4.32,4.89-4.32a6.52,6.52,0,0,1,1.64.24v2.59a5.75,5.75,0,0,0-1.71-.24c-3.74,0-4.75,4.4-4.75,8v9.89h-2.35Z"/><path class="cls-1" d="M432.09,128.08h-2.35V124.9h-.08a6,6,0,0,1-5.93,3.65c-5.23,0-7.84-4.55-7.84-10.48s2.24-10.48,7.84-10.48a6.42,6.42,0,0,1,5.93,3.85h.08V98.64h2.35Zm-8-1.65c4.18,0,5.64-4.71,5.64-8.36s-1.46-8.36-5.64-8.36c-4.48,0-5.64,4.48-5.64,8.36S419.62,126.43,424.1,126.43Z"/><path class="cls-1" d="M457.86,100.68h2.91l10.34,27.4h-2.69l-2.8-7.34H452.48l-2.8,7.34h-2.5Zm1.27,2.59-5.68,15.12h11.31Z"/><path class="cls-1" d="M475.29,98.64h2.36v29.44h-2.36Z"/><path class="cls-1" d="M485.08,98.64h2.35v29.44h-2.35Z"/><path class="cls-1" d="M0,0V128.55H115.29V0ZM69.49,47c0-9.86,4.65-14.45,14.61-14.45,9.28,0,14.79,3.87,14.79,13.12V50H88V46.54c0-3.87-.49-5.82-3.43-5.87-3.39-.06-4.2,1.76-4.44,4.71v23.4c.24,2.54,1.43,4,4.27,4,3.71,0,3.85-2.9,3.85-5.8V63.46H84.71v-7.6H99.12V80.57H91.7l-.5-4.65h-.12c-2.22,3.87-4.71,5.28-9.39,5.28-9.23,0-12.2-6.44-12.2-14.65ZM17.07,34.21H44.56v9.42H27.27v8H44v9.06H27.27v9.46H44.74V79.5H17.07ZM94.39,97.88H62v12l-8.75,8.43V97.88H20.9l-9.09-8.77H53.27V10.23L62,18.66V89.11h41.47Z"/></g></g></svg>