<svg height="63.96" viewBox="0 0 280.52 63.96" width="280.52" xmlns="http://www.w3.org/2000/svg"><path d="m35.29 46.35-3.03 6.98h103.11l3.03-6.98z" fill="#0081cc"/><path d="m135.37 53.33h103.13l3.03-6.98h-103.13z" fill="#6fba2c"/><path d="m263.49 14-5.93 19.54-6.23-19.54h-9.5l1.36 3.34a8.14 8.14 0 0 0 -7.46-4.14 9.52 9.52 0 0 0 -8.58 4.67c-1-2.55-3.77-4.67-7.75-4.67a9.5 9.5 0 0 0 -8.57 4.67c-1-2.55-3.76-4.67-7.74-4.67a9.52 9.52 0 0 0 -8.58 4.67c-1-2.43-3.63-4.67-7.78-4.67a9.26 9.26 0 0 0 -8 4.56v-3.76h-8.79v25.3c-.6-.27-2.2-1.4-2.2-5.79v-10.6c0-6.93-5-9.63-12.19-9.63s-11.55 2.79-12.29 8.46h8.53a3.29 3.29 0 0 1 3.52-2.64c2 0 3.06.83 3.06 2.35s-.62 2-2.48 2.64c-1.71.54-5.57.72-9.11 1.75a6.74 6.74 0 0 0 -3.91 2.54 7.49 7.49 0 0 0 -3.48-4.86c-3-2-8.18-3-12-3.78s-4-2-4-2.84.89-2.48 4.26-2.48c4.28 0 4.62 2.87 4.62 2.87h9.32c-.31-4.48-3.84-8.85-13.63-8.85-11.8 0-13.78 6.09-13.78 9.29a7.57 7.57 0 0 0 3.82 6.85c2.48 1.61 8.57 2.89 12 3.67s3.61 2.28 3.61 3.17-.83 2.81-5 2.81c-5.51 0-5.9-3.73-5.9-3.73h-8.39l-6.7-17.26h-12l-6.76 17.09v-6.73h-13.6v5.49h6.32c0 2.3-1 5.23-5.82 5.23-3.86 0-6.68-3.07-6.68-7.71s3-7.68 6.84-7.68 4.87 2 4.87 2h7.83c-.73-3.92-4.88-8.41-12.79-8.41-5.83.03-10.28 2.58-12.83 6.48v-5.72h-22v13.72a9.06 9.06 0 0 0 -5.09-4.45c-2.75-1.17-8.09-2.21-11.31-2.86s-3.81-1.69-3.81-2.69 1-2.51 4.59-2.51c4.34 0 4.94 2.82 4.94 2.82h9c-.26-4.39-3.65-8.83-14-8.83-12.53 0-14.19 6.59-14.19 9.3a7.54 7.54 0 0 0 4.44 7.06c3.26 1.66 9.43 2.72 12.43 3.44s3.85 1.64 3.85 3-1.37 2.92-6 2.92c-5.43 0-6-3.66-6-3.66h-9.22c.17 4.83 4.18 10.1 15.37 10.1 8.42 0 13.36-3.19 15-6.81v6h22.49v-5.25c2.23 3.6 6.3 6.05 12.31 6.05a14.23 14.23 0 0 0 10.77-4.35l-1.4 3.57h8.92l1.76-5h11.25l1.75 5h8.75l-1.39-3.54c1.86 2.3 6 4.32 12.3 4.32 7.69 0 11.49-2.81 13.25-5.6.79 3.74 4.76 5.46 8.25 5.46 4.19 0 7.4-1.22 9-3.3a11.56 11.56 0 0 0 1.51 2.66h18.5v-15.69a3.8 3.8 0 0 1 3.72-4.16c2 0 3.81 1.2 3.81 4.12v15.73h8.9v-15.69a3.81 3.81 0 0 1 3.69-4.16c2 0 3.81 1.2 3.81 4.12v15.73h8.83v-15.69a3.8 3.8 0 0 1 3.68-4.16c2 0 3.81 1.2 3.81 4.12v15.73h8.91v-15.69a3.8 3.8 0 0 1 3.68-4.16c2 0 3.81 1.2 3.81 4.12v15.73h8.76v-17a12.69 12.69 0 0 0 -.41-3.27l8.84 22.85c.66 1.68.53 4-2.77 4h-3.3l-3 6.9h7.05c3.17 0 8.39-.05 11.17-8.6l10.54-30.73zm-200.58 19.75h-13.27v-4.66h9.61v-5.49h-9.61v-4.34h13.3a14 14 0 0 0 -1.83 7.09 15.29 15.29 0 0 0 1.8 7.4zm34.92-4.55 3.66-10.38 3.63 10.38zm60.56 1.16a4.44 4.44 0 0 1 -4.71 4.48c-2.17 0-3.16-1.26-3.16-2.37a2.68 2.68 0 0 1 2.06-2.71c1.58-.52 3.85-.78 5.81-1.8z" fill="#fff"/><path d="m0 0h280.52v63.96h-280.52z" fill="none"/></svg>