<svg height="133.58mm" viewBox="0 0 252.56 378.66" width="89.1mm" xmlns="http://www.w3.org/2000/svg"><g fill="#fff"><path d="m115.17 319.75a.82.82 0 0 1 -1.25.7l-66.68-40.93c-30.24-19.52-47.24-45.05-47.24-83.61v-84.5a.82.82 0 0 1 1.23-.71l31.87 18.38a1.12 1.12 0 0 1 .56 1v63.72c0 30.33 13.75 43.14 31.37 56.6l49.6 30.23a1.14 1.14 0 0 1 .54 1z"/><path d="m113.81 251.7-33.6-20.15a1.12 1.12 0 0 1 -.55-1v-86.24a25.31 25.31 0 0 1 11.8-21.41l47.13-31.14a.6.6 0 0 0 -.33-1.09l-36.06.11a.83.83 0 0 1 -.83-.83v-22.24a.6.6 0 0 0 -.94-.49l-62 42.43a1.11 1.11 0 0 1 -1.19 0l-30.75-17.46a.84.84 0 0 1 -.07-1.42l127.25-90.49a1.49 1.49 0 0 1 2.33 1.21v58.19a.83.83 0 0 0 .83.83h108.48a1.19 1.19 0 0 1 .67 2.17l-120.8 81.09c-6.94 4.72-10.35 12.56-10.35 20.95v86.35a.69.69 0 0 1 -1.02.63z"/><path d="m203.58 188.39.1 27.74a.84.84 0 0 0 1.29.7l16-10.41a.63.63 0 0 1 1 .59c-3.4 30.67-42.24 49.25-48.62 52.1a.62.62 0 0 1 -.88-.57v-65.26a19 19 0 0 1 8.89-16.09l70.59-45.06a1.15 1.15 0 0 0 .52-1v-38.13a.83.83 0 0 0 -1.27-.7l-101.58 63.62a25.34 25.34 0 0 0 -12 21.53v142.64a.63.63 0 0 0 1 .53l68.8-42.76c26.72-18 45.17-41.69 45.17-80.87v-37.59a.84.84 0 0 0 -1.27-.71l-47.31 29a.83.83 0 0 0 -.43.7z"/><path d="m47.41 372.47h6.19v6.19h-6.19z"/><path d="m69.65 350.25h-6.19v22.53a5.79 5.79 0 0 0 1.7 4.18 5.71 5.71 0 0 0 4.17 1.7h17v-6.19h-16.68z"/><path d="m94.1 372.78a5.79 5.79 0 0 0 1.7 4.22 5.73 5.73 0 0 0 4.17 1.7h17v-6.19h-16.68v-4.92h14.91v-6.19h-14.91v-4.92h16.71v-6.19h-22.94z"/><path d="m144.18 350.25h-17v28.21.2h6.19v-8.66h10.47v8.71h6.19v-22.59a5.63 5.63 0 0 0 -1.74-4.12 5.55 5.55 0 0 0 -4.11-1.75zm-.32 6.19v7.32h-10.47v-7.32z"/><path d="m159.64 372.78a5.79 5.79 0 0 0 1.7 4.18 5.71 5.71 0 0 0 4.17 1.7h11.1a5.71 5.71 0 0 0 4.13-1.7 5.62 5.62 0 0 0 1.75-4.18v-11.42h-11.75v6.19h5.56v4.92h-10.47v-16h16.66v-6.19h-22.9z"/><path d="m247.09 356.44v-6.19h-22.89v22.53a5.79 5.79 0 0 0 1.7 4.18 5.73 5.73 0 0 0 4.17 1.7h17v-6.19h-16.64v-4.92h14.91v-6.19h-14.91v-4.92z"/><path d="m208.58 372.47h-10.47v-22.22h-6.19v22.53a5.79 5.79 0 0 0 1.7 4.18 5.71 5.71 0 0 0 4.17 1.7h11.11a5.7 5.7 0 0 0 4.17-1.71 5.77 5.77 0 0 0 1.7-4.17v-22.53h-6.19z"/><path d="m32.03 350.25-8.56 11.17-8.56-11.17h-6.19v28.4h6.28v-18.42l8.47 9.76 8.47-9.76v18.42h6.27v-28.4z"/></g></svg>