<svg height="69.79" viewBox="0 0 250.77 69.79" width="250.77" xmlns="http://www.w3.org/2000/svg"><g fill-rule="evenodd"><path d="m83.38 0-81.53 15.93-1.85 15.61 14.81 9.87 81.38-15.9 1.97-15.8z" fill="#009fe8"/><g fill="#00aeeb"><path d="m346.11 285.75v4.55h-4.4v12.35a2.6 2.6 0 0 0 .67 2 2.35 2.35 0 0 0 1.65.51c.42 0 .85 0 1.27-.06s.75-.06 1-.09v5.82c-.52.06-1.22.12-2.12.18s-1.77.1-2.61.11a8.17 8.17 0 0 1 -4.67-1.16 5.21 5.21 0 0 1 -2.06-2.83 11.86 11.86 0 0 1 -.47-3.58v-13.25h-3.59v-4.55h3.59v-7.28h7.38v7.28z" transform="translate(-257.28 -241.33)"/><path d="m102.05 69.13-8.51-25.17h7.9l4.35 17.79h.1l4.35-17.79h7.86l-8.61 25.17z"/><path d="m406 299.87v-1.74l-5 1.41a7.63 7.63 0 0 0 -2.47 1.07 2.6 2.6 0 0 0 -1.09 2.2 2.54 2.54 0 0 0 1.06 2.16 4.13 4.13 0 0 0 2.4.68 4.81 4.81 0 0 0 3.61-1.45 6.13 6.13 0 0 0 1.45-4.33m7.1-8v13.3c0 .89 0 1.78.1 2.69a10 10 0 0 0 .56 2.56h-6.82a10 10 0 0 1 -.47-2.6h-.1a5.52 5.52 0 0 1 -1.92 1.73 11.94 11.94 0 0 1 -5.65 1.53 9.21 9.21 0 0 1 -6-1.93 7 7 0 0 1 -2.4-5.54 7.17 7.17 0 0 1 3.44-6.51 24.33 24.33 0 0 1 9.48-2.82l2.69-.38v-2.08a2.37 2.37 0 0 0 -1-2.06 4.36 4.36 0 0 0 -2.5-.63 3.34 3.34 0 0 0 -3.88 3.36h-7.09a7.5 7.5 0 0 1 2-5.27 8.7 8.7 0 0 1 4.18-2.2 18.16 18.16 0 0 1 4.15-.44 16.88 16.88 0 0 1 8.16 1.52c2.01 1.02 3.01 2.9 3.06 5.73z" transform="translate(-257.28 -241.33)"/><path d="m440.25 288.25-4.55 4.44a7.44 7.44 0 0 0 -3.16-2 12 12 0 0 0 -3.79-.69 4.7 4.7 0 0 0 -2.28.49 1.61 1.61 0 0 0 -.89 1.45 2 2 0 0 0 1.55 1.81 19.8 19.8 0 0 0 3.69.92 34.93 34.93 0 0 1 4.42 1 8.82 8.82 0 0 1 3.69 2.15 5.93 5.93 0 0 1 1.55 4.27 8.12 8.12 0 0 1 -1.72 5.26 9.42 9.42 0 0 1 -4.25 2.86 16.23 16.23 0 0 1 -5.39.85 17 17 0 0 1 -6.82-1.2 19 19 0 0 1 -5.47-3.76l4.58-4a14.29 14.29 0 0 0 3.57 2.58 9.94 9.94 0 0 0 4.38.95 7.61 7.61 0 0 0 1.59-.16 3.76 3.76 0 0 0 1.66-.72 2.06 2.06 0 0 0 .78-1.66c0-.76-.56-1.31-1.55-1.67a23.27 23.27 0 0 0 -3.7-.88 35.19 35.19 0 0 1 -4.41-1 8.88 8.88 0 0 1 -3.7-2.1 5.58 5.58 0 0 1 -1.55-4.08 8.13 8.13 0 0 1 1.62-5.09 9.08 9.08 0 0 1 4-2.83 14.35 14.35 0 0 1 5-.87 17.92 17.92 0 0 1 5.74 1 22.94 22.94 0 0 1 5.41 2.68z" transform="translate(-257.28 -241.33)"/><path d="m459.82 299.87v-1.74l-5 1.41a7.63 7.63 0 0 0 -2.47 1.07 2.57 2.57 0 0 0 -1.08 2.2 2.51 2.51 0 0 0 1.05 2.16 4.14 4.14 0 0 0 2.41.68 4.84 4.84 0 0 0 3.61-1.45 6.18 6.18 0 0 0 1.45-4.33m7.1-8v13.3a24.37 24.37 0 0 0 .1 2.69 9.19 9.19 0 0 0 .56 2.56h-6.81a10 10 0 0 1 -.48-2.6h-.09a5.71 5.71 0 0 1 -1.92 1.73 11.65 11.65 0 0 1 -2.79 1.13 11.52 11.52 0 0 1 -2.87.4 9.21 9.21 0 0 1 -6-1.93 7 7 0 0 1 -2.4-5.54 7.16 7.16 0 0 1 3.45-6.51 24.27 24.27 0 0 1 9.47-2.82l2.7-.38v-2.08a2.37 2.37 0 0 0 -1-2.06 4.35 4.35 0 0 0 -2.49-.63 3.34 3.34 0 0 0 -3.89 3.36h-7.09a7.54 7.54 0 0 1 2-5.27 8.7 8.7 0 0 1 4.18-2.2 18.22 18.22 0 0 1 4.15-.44 16.85 16.85 0 0 1 8.16 1.52c2 1.02 3.03 2.9 3.09 5.73z" transform="translate(-257.28 -241.33)"/><path d="m472.72 310.46v-33.69h7.38v10.88h.1a7.25 7.25 0 0 1 3.11-2.24 10.56 10.56 0 0 1 3.8-.79c2.64 0 4.62.75 5.93 2.17a8.48 8.48 0 0 1 2 6v17.7h-7.39v-15.1c-.05-1.9-.46-3.18-1.24-3.84a3.42 3.42 0 0 0 -2.44-.94 3.32 3.32 0 0 0 -2.56 1.13c-.8.81-1.22 2.36-1.28 4.64v14.11z" transform="translate(-257.28 -241.33)"/><path d="m500.67 285.28h7.38v25.18h-7.38zm7.38-2.84h-7.38v-5.67h7.38z" transform="translate(-257.28 -241.33)"/></g></g></svg>