<!-- Generator: Adobe Illustrator 22.1.0, SVG Export Plug-In  -->
<svg version="1.1"
	 xmlns="http://www.w3.org/2000/svg" xmlns:xlink="http://www.w3.org/1999/xlink" xmlns:a="http://ns.adobe.com/AdobeSVGViewerExtensions/3.0/"
	 x="0px" y="0px" width="1108px" height="239.1px" viewBox="0 0 1108 239.1" style="enable-background:new 0 0 1108 239.1;"
	 xml:space="preserve">
<style type="text/css">
	.st0{fill:#FFFFFF;}
</style>
<defs>
</defs>
<path class="st0" d="M186.8,161.8h-30.1v25.7c18.3,3.6,35.3,8.9,50.1,15.6h-50.1v36h98.6C230.4,221.4,206.2,194.8,186.8,161.8"/>
<polygon class="st0" points="255.3,239.1 299.2,239.1 299.2,161.8 210.7,161.8 "/>
<path class="st0" d="M103.4,182.4c-39.1,0-75.1,7.8-103.4,20.7h156.7v-15.6C140,184.2,122,182.4,103.4,182.4"/>
<path class="st0" d="M152,60.1c2.9,31,14.2,66,33.8,99.9c0.4,0.6,0.7,1.2,1.1,1.8h23.8L152,60.1z"/>
<path class="st0" d="M125.1,99.9C144.6,66,155.9,31,158.8,0L55.5,179.1C80.8,161,105.5,133.8,125.1,99.9"/>
<rect x="931.7" y="116.5" class="st0" width="94.1" height="9.2"/>
<rect x="325.1" y="80.8" class="st0" width="91.6" height="9.3"/>
<rect x="325.1" y="116.5" class="st0" width="91.6" height="9.2"/>
<rect x="315.2" y="152.7" class="st0" width="111.3" height="9.3"/>
<polygon class="st0" points="630.6,90 668.4,90 668.4,80.8 576.8,80.8 576.8,90 614.6,90 614.6,152.7 567,152.7 567,162 678.2,162 
	678.2,152.7 630.6,152.7 "/>
<path class="st0" d="M506.6,89.4h35.5v-7.8h-35.5v-6.7h-16v6.7H455v7.8h35.5V101h-48.1v8.2h25.2c1.1,2.3,2.2,5,2.9,7.1
	c1.2,3.4,1.9,6.9,2.3,9.5h-30.5v8.2h48.1v11.5h-38.1v8.2h38.1v14h16v-14h38.1v-8.2h-38.1v-11.5h48.4v-8.2h-34.5
	c1.9-1.9,4-4.1,5.3-5.7c3.3-4.3,6.2-8.3,8.1-11h21.2V101h-48.4V89.4z M516.9,109.2c-0.6,2.5-1.6,5.6-3,8.7c-1,2.4-2.8,5.5-4.2,7.9
	h-20.6c-1.6-2.8-3.9-6.6-6.5-10.7c-1-1.6-2.9-3.9-4.6-5.9H516.9z"/>
<rect x="824.3" y="80.8" class="st0" width="75.4" height="9.3"/>
<path class="st0" d="M806.8,114.6h51.1c-1.1,5.6-3.6,15.6-8.8,23.5c-11.5,17.7-29.1,23.1-29.1,23.1v6.7c0,0,25.1-3.9,41-20.4
	c10.5-11,15.3-25.6,17.1-32.8h39.3v-9.3H806.8V114.6z"/>
<path class="st0" d="M759.1,130c22.3-25.1,24.9-49.2,24.9-49.2h-7.6h-11.1h-66.8V90h64.3c-3.1,9.2-9.7,24.2-22.8,39.6
	c-16.8,19.8-48.2,31.5-48.2,31.5v6.7c0,0,32.6-4.2,60.5-30.8c0.2-0.2,0.4-0.4,0.6-0.6c3,3.2,9.1,9.4,16.4,15.1
	c11.2,8.7,24,16.2,24,16.2v-18.7c0,0-4.4-0.3-16.8-7.9C768.7,136.5,762.8,132.5,759.1,130"/>
<path class="st0" d="M1086.9,113.1c-13.8-4.1-23.9-6.4-26.5-6.9V74.9h-16v92.9h16v-52.7c3.7,1.5,11.9,5,20.8,9.5
	c14.4,7.3,26.8,15.4,26.8,15.4v-19.5C1108,120.5,1101.5,117.4,1086.9,113.1"/>
</svg>
