<svg height="250.5" viewBox="0 0 165.92 250.5" width="165.92" xmlns="http://www.w3.org/2000/svg"><path d="m19.01 34.91v-19.74" fill="none" stroke="#135d29" stroke-linecap="round" stroke-linejoin="round" stroke-width="4"/><path d="m27.25 34.91v-23.41" fill="none" stroke="#135d29" stroke-linecap="round" stroke-linejoin="round" stroke-width="4"/><path d="m35.65 28.72v-15.05" fill="none" stroke="#135d29" stroke-linecap="round" stroke-linejoin="round" stroke-width="4"/><path d="m44.08 23.46v-9.13" fill="none" stroke="#135d29" stroke-linecap="round" stroke-linejoin="round" stroke-width="4"/><path d="m52.65 25.04v-22.21" fill="none" stroke="#135d29" stroke-linecap="round" stroke-linejoin="round" stroke-width="4"/><path d="m83 25.83v-23.83" fill="none" stroke="#135d29" stroke-linecap="round" stroke-linejoin="round" stroke-width="4"/><path d="m99.32 27.79v-22.12" fill="none" stroke="#135d29" stroke-linecap="round" stroke-linejoin="round" stroke-width="4"/><path d="m110.4 24.02v-8.85" fill="none" stroke="#135d29" stroke-linecap="round" stroke-linejoin="round" stroke-width="4"/><path d="m120.95 29.18v-10.28" fill="none" stroke="#135d29" stroke-linecap="round" stroke-linejoin="round" stroke-width="4"/><path d="m125.48 43.64 5.8-11.47" fill="none" stroke="#135d29" stroke-linecap="round" stroke-linejoin="round" stroke-width="4"/><path d="m135.28 50.14 7.3-17.97" fill="none" stroke="#135d29" stroke-linecap="round" stroke-linejoin="round" stroke-width="4"/><path d="m142.03 55.63 3.36-6.96" fill="none" stroke="#135d29" stroke-linecap="round" stroke-linejoin="round" stroke-width="4"/><path d="m142.58 74.42 12.34-25.75" fill="none" stroke="#135d29" stroke-linecap="round" stroke-linejoin="round" stroke-width="4"/><path d="m150.81 81.92 7.27-17.75" fill="none" stroke="#135d29" stroke-linecap="round" stroke-linejoin="round" stroke-width="4"/><path d="m155.59 92.22 5.66-14.33" fill="none" stroke="#135d29" stroke-linecap="round" stroke-linejoin="round" stroke-width="4"/><path d="m89.89 140.69s1.21-11-1.46-14" fill="none" stroke="#135d29" stroke-linecap="round" stroke-linejoin="round" stroke-width="4"/><path d="m98.58 138.51s2.26-13.51-1.12-16.51" fill="none" stroke="#135d29" stroke-linecap="round" stroke-linejoin="round" stroke-width="4"/><path d="m112.05 139.33s1.67-16.16-1.65-19" fill="none" stroke="#135d29" stroke-linecap="round" stroke-linejoin="round" stroke-width="4"/><path d="m122.46 142.28s2.37-9.45 0-12.45" fill="none" stroke="#135d29" stroke-linecap="round" stroke-linejoin="round" stroke-width="4"/><path d="m33.92 113.5s4.16 21.5 25 14.17c0 0 9.16 10.66 21.5.66 0 0 14.6 8.17 22.3-1 0 0 9 11.5 19.74-1.5 0 0 8.46 9.84 18.62.84s6.32-17.67 6.32-17.67 10-6.5 8-18-14.5-15.5-14.5-15.5 5.83-9.33 1.83-18.5-17.73-8.83-17.73-8.83 4.4-15.17-8.44-22.34-24.5 9-24.5 9-7.64-11.83-17.64-11.66-13.34 10.83-13.34 10.83-1.37-10.67-13.68-10.84-15.5 12.84-15.5 12.84-13.82-5.83-18.82 4 2 21.33 2 21.33-11.84 2.37-13 11.17 10.34 13 10.34 13-10.17 6.17-7.84 15.67 14.34 22.16 29.34 12.33z" fill="#135d29" stroke="#135d29" stroke-linecap="round" stroke-linejoin="round" stroke-width="4"/><path d="m79 147.39s10.1-11.72 32.1-8.22 30.34 17.66 31.84 20.66c0 0 9.13 16.19 6 24.1s-24.48 24.24-37.15 15.9-42.37-16.83-40.46-27.33 7.67-25.11 7.67-25.11z" fill="#fff" stroke="#135d29" stroke-linecap="round" stroke-linejoin="round" stroke-width="4"/><path d="m106.18 162.91s26.24 3.09 41.74 19.92 16.33 30.17 13.83 36.67-7.5 7-12.5 6.34-41.83-10.84-45.67-16.84-30.3-25 2.6-46.09z" fill="#fff" stroke="#135d29" stroke-linecap="round" stroke-linejoin="round" stroke-width="4"/><path d="m114 191.13c5.82-19.9-6.54-28.8-15.71-32.88s-23.67-.58-37.5 3.58-37.5 17.5-46.33 38 4 26.5 11.16 26 27.06-8.06 27.06-8.06 57.49-13.67 61.32-26.64z" fill="#fff" stroke="#135d29" stroke-linecap="round" stroke-linejoin="round" stroke-width="4"/><path d="m47.23 148s-2.12 7.54-2.23 7.86c-.3.65-1 .92-2 .72-1.57-.32-36.52-21.58-36.52-21.58s-1.73-1 0-2.3 6 0 6 0l33.64 12.65s1.88.27 1.11 2.65z" fill="#d42723"/><path d="m19.75 155.79c.17-.79.83-1.5 2.67-1.17s20.7 4.13 20.7 4.13 1.17-.08.92 1.83-1.29 5.42-2.29 5.92a2.55 2.55 0 0 1 -2.25-.38s-18.23-7.24-18.83-7.7a3.29 3.29 0 0 1 -.92-2.63z" fill="#d42723"/><path d="m67.58 230.63v18.37" fill="none" stroke="#d42723" stroke-linecap="round" stroke-linejoin="round" stroke-width="3"/><path d="m58.71 249s.25-9.19 8.87-9.19 8.5 9.19 8.5 9.19" fill="none" stroke="#d42723" stroke-linecap="round" stroke-linejoin="round" stroke-width="3"/><path d="m113.96 230.63v18.37" fill="none" stroke="#d42723" stroke-linecap="round" stroke-linejoin="round" stroke-width="3"/><path d="m105.08 249s.25-9.19 8.88-9.19 8.5 9.19 8.5 9.19" fill="none" stroke="#d42723" stroke-linecap="round" stroke-linejoin="round" stroke-width="3"/><path d="m28.75 225.84s-2.17-15.34 5.67-26.84 30.16-29 39.16-32.35 14.84-5.32 20.67-2.15a28 28 0 0 1 14.28 26.63" fill="none" stroke="#135d29" stroke-linecap="round" stroke-linejoin="round" stroke-width="4"/><path d="m83.25 171s15.77 2.39 19.47 21.7" fill="none" stroke="#135d29" stroke-linecap="round" stroke-linejoin="round" stroke-width="4"/><path d="m79.39 178.77s11.45.13 18.07 16.76" fill="none" stroke="#135d29" stroke-linecap="round" stroke-linejoin="round" stroke-width="4"/><path d="m55.35 220.83s5.6 5.75 12.21 4.89 6.9-1 11.65-3.6 5.17-4 10.34-3.88a20 20 0 0 1 10.78 3.16c2.16 1.44 8.34 4.89 15.1 3.74s12.93-5.75 14.66-12.93-1.44-20.7-12.36-21.42-16.82 2.3-20.27 4.74-12.65 2.3-15.67-.86-4.6-12.22-1.58-17.82 6.18-10.78 5.18-18.4-8.63-14.23-13.52-14.66-17-.14-20.26 11.07.14 16.24 3 20.84 4.17 11.5 1 16.24-7.76 9.92-6.18 17.82 5.92 11.07 5.92 11.07z" fill="#fff" stroke="#135d29" stroke-linecap="round" stroke-linejoin="round" stroke-width="4"/><circle cx="66.71" cy="158.25" fill="#d42723" r="4.63"/><g stroke-linecap="round" stroke-linejoin="round"><path d="m13.7 201.58s25.36 1.08 35.45 4.25" fill="none" stroke="#135d29" stroke-width="4"/><path d="m25.18 183.93s22.2 6.22 27.47 12.4" fill="none" stroke="#135d29" stroke-width="4"/><path d="m41.82 170.61s10.85 6.21 15.64 14.13" fill="none" stroke="#135d29" stroke-width="4"/><path d="m135.28 171.75s-18.18 11-20.52 19" fill="none" stroke="#135d29" stroke-width="4"/><path d="m149.62 184.74s-20.32 5-23.26 10.55" fill="none" stroke="#135d29" stroke-width="4"/><path d="m160.38 201.58s-25.15.41-30 4.25" fill="none" stroke="#135d29" stroke-width="4"/><path d="m115.17 177.67s19.08 7.5 25.41 21.5 7.75 19.4 6.29 26.2" fill="none" stroke="#135d29" stroke-width="4"/><path d="m56.58 147.39s-3.94-11.56-11.33-12.89" fill="none" stroke="#135d29" stroke-width="4"/><path d="m113.77 139.66s-7.52 13.36-8.69 22.44" fill="none" stroke="#135d29" stroke-width="4"/><path d="m131.78 147.39s-11.86 12.22-12.61 18.5" fill="none" stroke="#135d29" stroke-width="4"/><path d="m89.89 156.47a15.08 15.08 0 0 1 14-5.59c9.16 1.29 7.94 1.07 15.25 4.62 6.88 3.34 13.89 10.07 18.82 19" fill="none" stroke="#135d29" stroke-width="4"/><path d="m139.4 154.54s4-12.55 24.52-14.88" fill="none" stroke="#135d29" stroke-width="4"/><path d="m144.36 162.63s5.22-12.21 12.89-11.75" fill="none" stroke="#135d29" stroke-width="4"/><circle cx="51.92" cy="109.67" fill="#135d29" r="7.17" stroke="#fff" stroke-width="4"/><circle cx="77.45" cy="109.67" fill="#135d29" r="7.17" stroke="#fff" stroke-width="4"/><circle cx="128.12" cy="99.56" fill="#135d29" r="7.17" stroke="#fff" stroke-width="4"/><circle cx="90.16" cy="85.05" fill="#135d29" r="7.17" stroke="#fff" stroke-width="4"/><circle cx="60.8" cy="85.05" fill="#135d29" r="7.17" stroke="#fff" stroke-width="4"/><circle cx="31.9" cy="83.16" fill="#135d29" r="7.17" stroke="#fff" stroke-width="4"/><circle cx="120.95" cy="74.42" fill="#135d29" r="7.17" stroke="#fff" stroke-width="4"/><circle cx="109.43" cy="50.81" fill="#135d29" r="7.17" stroke="#fff" stroke-width="4"/><circle cx="83.95" cy="60.44" fill="#135d29" r="7.17" stroke="#fff" stroke-width="4"/><circle cx="59.08" cy="58.55" fill="#135d29" r="7.17" stroke="#fff" stroke-width="4"/><circle cx="31.43" cy="53.27" fill="#135d29" r="7.17" stroke="#fff" stroke-width="4"/><circle cx="105.08" cy="108.82" fill="#135d29" r="7.17" stroke="#fff" stroke-width="4"/></g></svg>