<svg xmlns="http://www.w3.org/2000/svg" viewBox="0 0 112.59 112.56">
  <defs>
    <style>
      .cls-1 {
        fill: #00632f;
      }

      .cls-2, .cls-3 {
        fill: #fff;
      }

      .cls-3 {
        font-size: 8.04px;
        font-family: HelveticaNeue-Bold, Helvetica Neue;
        font-weight: 700;
      }

      .cls-4 {
        fill: #b80016;
      }

      .cls-5 {
        fill: #ff0031;
      }
    </style>
  </defs>
  <title>img-flower</title>
  <path class="cls-1" d="M723.46,389.17c30.18-.56,55.81,25.46,55.81,55.81s-25.73,55.87-56.15,55.73c-29.82-.13-55.73-26-55.33-56.49C668.17,414.72,693,388.6,723.46,389.17Zm0,107c27.73.45,51.32-23.19,51.32-51.15s-23.52-51.41-51.31-51.44c-28,0-51.22,23.65-51.21,51.47C672.27,472.56,695.86,496.63,723.47,496.12Z" transform="translate(-667.26 -388.77)"/>
  <path class="cls-2" d="M724.36,495.07c-27.61.51-51.2-23.56-51.2-51.11,0-27.83,23.26-51.5,51.21-51.47,27.79,0,51.31,23.58,51.31,51.43S752.09,495.52,724.36,495.07Zm49.56-51.14c.58-26.93-22.67-49.61-49.2-49.81-27.24-.2-49.91,22.9-49.93,49.77s22.93,49.58,49.37,49.65C751.07,493.61,774.5,471,773.92,443.93Z" transform="translate(-667.26 -388.77)"/>
  <path class="cls-1" d="M773,445c.58,27-22.85,49.68-49.76,49.61-26.44-.07-49.39-22.93-49.37-49.65s22.69-50,49.93-49.77C750.36,395.36,773.61,418.05,773,445Z" transform="translate(-667.26 -388.77)"/>
  <path class="cls-2" d="M723.37,479a33.58,33.58,0,0,1-33.89-33.95,34,34,0,0,1,9.8-24.14,33.43,33.43,0,0,1,24-10,34.21,34.21,0,0,1,24.43,9.94A34.15,34.15,0,0,1,723.4,479Z" transform="translate(-667.26 -388.77)"/>
  <text class="cls-3" transform="translate(23.12 35.52) rotate(-53.08)">M</text>
  <text class="cls-3" transform="matrix(0.69, -0.72, 0.72, 0.69, 27.52, 29.91)">.</text>
  <text class="cls-3" transform="translate(28.92 28.36) rotate(-41.25)">L</text>
  <text class="cls-3" transform="translate(32.37 25.3) rotate(-34.02)">E</text>
  <text class="cls-3" transform="translate(36.54 22.46) rotate(-26.27)">A</text>
  <text class="cls-3" transform="matrix(0.95, -0.31, 0.31, 0.95, 41.27, 20.08)">G</text>
  <text class="cls-3" transform="matrix(0.99, -0.16, 0.16, 0.99, 46.88, 18.26)">U</text>
  <text class="cls-3" transform="translate(52.58 17.36) rotate(-1.09)">E</text>
  <text class="cls-3" transform="translate(57.68 17.33) rotate(4.19)"> </text>
  <text class="cls-3" transform="matrix(0.99, 0.13, -0.13, 0.99, 59.81, 17.48)"> </text>
  <text class="cls-3" transform="translate(61.97 17.76) rotate(10.36)"> </text>
  <text class="cls-3" transform="translate(64.08 18.14) rotate(13.36)"> </text>
  <text class="cls-3" transform="translate(66.17 18.48) rotate(19.81)">M</text>
  <text class="cls-3" transform="translate(72.84 21.03) rotate(26.41)">.</text>
  <text class="cls-3" transform="translate(74.75 21.91) rotate(31.32)">L</text>
  <text class="cls-3" transform="matrix(0.78, 0.62, -0.62, 0.78, 78.71, 24.29)">E</text>
  <text class="cls-3" transform="translate(82.64 27.39) rotate(46.16)">A</text>
  <text class="cls-3" transform="translate(86.36 31.21) rotate(54.59)">G</text>
  <text class="cls-3" transform="translate(89.79 36.01) rotate(63.29)">U</text>
  <text class="cls-3" transform="matrix(0.32, 0.95, -0.95, 0.32, 92.37, 41.16)">E</text>
  <text class="cls-3" transform="translate(93.93 46.01) rotate(76.71)"> </text>
  <text class="cls-3" transform="translate(94.43 48.1) rotate(79.91)"> </text>
  <text class="cls-3" transform="matrix(0.12, 0.99, -0.99, 0.12, 94.81, 50.23)"> </text>
  <text class="cls-3" transform="matrix(0.06, 1, -1, 0.06, 95.07, 52.36)"> </text>
  <text class="cls-3" transform="translate(95.36 54.41) rotate(92.97)">M</text>
  <text class="cls-3" transform="translate(94.85 61.54) rotate(99.57)">.</text>
  <text class="cls-3" transform="translate(94.57 63.64) rotate(104.47)">L</text>
  <text class="cls-3" transform="matrix(-0.36, 0.93, -0.93, -0.36, 93.44, 68.13)">E</text>
  <text class="cls-3" transform="translate(91.65 72.84) rotate(118.54)">A</text>
  <text class="cls-3" transform="matrix(-0.6, 0.8, -0.8, -0.6, 89.15, 77.51)">G</text>
  <text class="cls-3" transform="matrix(-0.71, 0.7, -0.7, -0.71, 85.62, 82.24)">U</text>
  <text class="cls-3" transform="matrix(-0.81, 0.59, -0.59, -0.81, 81.48, 86.29)">E</text>
  <text class="cls-3" transform="translate(77.36 89.24) rotate(149.07)"> </text>
  <text class="cls-3" transform="translate(75.52 90.35) rotate(152.29)"> </text>
  <text class="cls-3" transform="translate(73.63 91.35) rotate(155.52)"> </text>
  <text class="cls-3" transform="matrix(-0.93, 0.36, -0.36, -0.93, 71.65, 92.25)"> </text>
  <text class="cls-3" transform="matrix(-0.97, 0.25, -0.25, -0.97, 69.76, 93.15)">M</text>
  <text class="cls-3" transform="translate(62.84 94.78) rotate(172.52)">.</text>
  <text class="cls-3" transform="matrix(-1, 0.04, -0.04, -1, 60.74, 95.11)">L</text>
  <text class="cls-3" transform="translate(56.15 95.33) rotate(-175.45)">E</text>
  <text class="cls-3" transform="matrix(-0.98, -0.21, 0.21, -0.98, 51.11, 94.95)">A</text>
  <text class="cls-3" transform="matrix(-0.94, -0.34, 0.34, -0.94, 45.89, 93.88)">G</text>
  <text class="cls-3" transform="matrix(-0.88, -0.47, 0.47, -0.88, 40.34, 91.9)">U</text>
  <text class="cls-3" transform="matrix(-0.81, -0.59, 0.59, -0.81, 35.24, 89.16)">E</text>
  <text class="cls-3" transform="translate(31.18 86.13) rotate(-138.68)"> </text>
  <text class="cls-3" transform="matrix(-0.71, -0.7, 0.7, -0.71, 29.55, 84.71)"> </text>
  <text class="cls-3" transform="matrix(-0.67, -0.74, 0.74, -0.67, 28.01, 83.2)"> </text>
  <text class="cls-3" transform="translate(26.55 81.59) rotate(-129.02)"> </text>
  <text class="cls-3" transform="matrix(-0.53, -0.85, 0.85, -0.53, 25.12, 80.08)">M</text>
  <text class="cls-3" transform="translate(21.44 73.97) rotate(-115.42)">.</text>
  <text class="cls-3" transform="translate(20.48 72.1) rotate(-110.4)">L</text>
  <text class="cls-3" transform="matrix(-0.23, -0.97, 0.97, -0.23, 18.85, 67.79)">E</text>
  <text class="cls-3" transform="matrix(-0.09, -1, 1, -0.09, 17.69, 62.91)">A</text>
  <text class="cls-3" transform="translate(17.16 57.6) rotate(-86.93)">G</text>
  <text class="cls-3" transform="translate(17.47 51.71) rotate(-78.43)">U</text>
  <text class="cls-3" transform="matrix(0.33, -0.94, 0.94, 0.33, 18.64, 46.06)">E</text>
  <path class="cls-4" d="M723.37,475a29.66,29.66,0,0,1-29.92-30,30,30,0,0,1,8.65-21.35,29.5,29.5,0,0,1,21.16-8.77,30.24,30.24,0,0,1,21.62,8.77A30.18,30.18,0,0,1,723.39,475Z" transform="translate(-667.26 -388.77)"/>
  <path class="cls-5" d="M707.77,443.48v.17H711c.52,0,1.17.06,1.12-.66a1.4,1.4,0,0,0-.84-.91c-2.56-.88-5.13-1.71-7.72-2.51a2.19,2.19,0,0,0-1.16.05,2,2,0,0,1-2.44-1,1.94,1.94,0,0,1,3.25-2.07,2.51,2.51,0,0,0,1,.7c2.6.87,5.2,1.7,7.81,2.55.49.15,1,.4,1.32-.28s-.24-.91-.64-1.19c-1.62-1.14-3.27-2.25-4.9-3.39-.58-.41-1.54-.8-.86-1.72s1.28-.14,1.85.26q2.6,1.75,5.16,3.56a.81.81,0,0,0,1.25-.14c.32-.41,1-.72.49-1.37-1.79-2.29-3.5-4.65-5.43-6.82-1.37-1.54-3.23-1.66-5.12-.88a13.6,13.6,0,0,0-6.53,19.87c1.32,2.15,3,2.87,5.4,2.2s4.86-1.45,7.29-2.15a1.11,1.11,0,0,0,.9-1.44c-.1-.78-.56-.91-1.21-.92-2.19,0-4.39-.11-6.58-.16-.63,0-1.12-.21-1.1-.91s.54-.87,1.15-.87Z" transform="translate(-667.26 -388.77)"/>
  <path class="cls-5" d="M739.41,443.82v-.17c1.13,0,2.26-.07,3.38,0a1.45,1.45,0,0,1,1.07.79c.14.66-.42.92-1,.94l-.82,0c-2,0-4,.1-6,.11-.76,0-1,.43-1.06,1.09s0,1.07.68,1.26c2.57.73,5.11,1.58,7.71,2.19a4.48,4.48,0,0,0,5.2-2.37A13.58,13.58,0,0,0,742.14,428c-2.37-1-4.12-.62-5.74,1.41s-3,4-4.58,5.95a1.11,1.11,0,0,0,.06,1.69c.58.61,1,.46,1.6.05,1.73-1.23,3.49-2.42,5.23-3.63.55-.38,1.13-.69,1.6,0s0,1.07-.56,1.42c-1.78,1.22-3.57,2.43-5.32,3.7a1.4,1.4,0,0,0-.54,1.1c.16.71.76.47,1.26.31,2.54-.83,5.09-1.64,7.62-2.5a2.31,2.31,0,0,0,1-.76,2,2,0,0,1,2.55-.63,1.94,1.94,0,0,1-1.45,3.57,2.19,2.19,0,0,0-1-.05c-2.75.87-5.49,1.75-8.21,2.68-.3.11-.47.61-.7.92.31.2.61.55.93.57C737.07,443.86,738.24,443.82,739.41,443.82Z" transform="translate(-667.26 -388.77)"/>
  <path class="cls-5" d="M722.23,461.34h.22c0-1.26,0-2.53,0-3.8a1.12,1.12,0,0,0-1.06-1.33c-.82-.15-1.09.26-1.31.92-.68,2-1.4,4-2.11,6-.2.58-.46,1.16-1.22.92s-.67-.91-.45-1.52c.7-2,1.42-4,2.11-6,.17-.47.47-1-.19-1.35s-.93.15-1.23.57c-1.57,2.16-3.15,4.31-4.69,6.49a2.12,2.12,0,0,0-.36,1.11,2,2,0,0,1-1.71,2.09,1.92,1.92,0,0,1-2.1-1.44,1.9,1.9,0,0,1,1.23-2.3,1.87,1.87,0,0,0,.69-.4q2.69-3.65,5.3-7.33a1,1,0,0,0-.17-.94c-.13-.16-.62-.15-.87,0a5.6,5.6,0,0,0-1,.73l-4.66,3.55c-.46.36-1,.5-1.32-.06-.16-.32.07-.89.24-1.31.09-.22.41-.35.63-.51,1.6-1.23,3.2-2.46,4.82-3.68a.86.86,0,0,0,.29-1.31c-.3-.5-.49-1.1-1.28-.81-2.55.92-5.14,1.72-7.62,2.79-2.19.94-3,2.61-2.82,5a13.64,13.64,0,0,0,17.23,12.11,4.2,4.2,0,0,0,3.38-4.12C722.29,464,722.23,462.68,722.23,461.34Z" transform="translate(-667.26 -388.77)"/>
  <path class="cls-5" d="M731.76,469.93a13.44,13.44,0,0,0,13.66-12.57,4.37,4.37,0,0,0-3.15-5c-2.34-.88-4.71-1.66-7.06-2.51a1.11,1.11,0,0,0-1.59.59c-.4.75-.1,1.12.46,1.53,1.7,1.28,3.38,2.58,5.07,3.87.49.37,1,.79.51,1.44s-1.06.37-1.59,0c-1.69-1.3-3.37-2.59-5.07-3.87-.39-.3-.78-.76-1.33-.23s-.15.92.15,1.34c1.51,2.08,3,4.17,4.55,6.22a3.51,3.51,0,0,0,1.32,1,2,2,0,0,1,1.25,2.22,1.93,1.93,0,0,1-3.82-.23,2.54,2.54,0,0,0-.35-1.13c-1.61-2.26-3.23-4.52-4.9-6.73a1.35,1.35,0,0,0-1.12-.5c-.72.18-.43.78-.26,1.27q1.05,3,2.11,6c.22.62.4,1.27-.39,1.56s-1.06-.33-1.28-1c-.71-2-1.46-4.06-2.14-6.11-.25-.76-.66-.87-1.39-.75s-1,.44-1,1.16q.08,2.77.09,5.55C724.52,468.2,726.41,469.83,731.76,469.93Z" transform="translate(-667.26 -388.77)"/>
  <path class="cls-5" d="M724.79,428.19h0c0,1.48,0,2.95,0,4.42,0,.3.4.59.61.88a4.71,4.71,0,0,0,.84-.68,2.38,2.38,0,0,0,.25-.78c.59-2,1.14-3.95,1.81-5.89.12-.33.74-.49,1.12-.73a6.93,6.93,0,0,1,.52,1.19c0,.23-.13.52-.21.78-.59,2-1.17,3.94-1.77,5.91a.86.86,0,0,0,.6,1.2c.51.22,1,.58,1.43-.07,1.56-2.3,3.2-4.54,4.63-6.91a4.39,4.39,0,0,0-.62-5.43,13.59,13.59,0,0,0-20.92-.07c-1.65,1.92-1.81,3.69-.42,5.81s2.88,4.18,4.3,6.28a1,1,0,0,0,1.54.45,1,1,0,0,0,.62-1.47c-.62-2-1.19-3.93-1.77-5.91-.19-.65-.56-1.43.38-1.74s1.1.54,1.3,1.19c.6,2,1.17,4,1.82,6,.12.35.6.58.91.86.21-.36.59-.73.6-1.1.06-2.46,0-4.93,0-7.4a2.93,2.93,0,0,0-.54-2.1,1.77,1.77,0,0,1,.35-2.41,2,2,0,0,1,2.38-.16,2,2,0,0,1,.7,2.37,9.79,9.79,0,0,0-.5,2.33C724.73,426.06,724.79,427.13,724.79,428.19Z" transform="translate(-667.26 -388.77)"/>
  <path class="cls-5" d="M723.56,455.24a10.34,10.34,0,1,0-10.29-10.38A10.35,10.35,0,0,0,723.56,455.24Z" transform="translate(-667.26 -388.77)"/>
  <path class="cls-2" d="M707.77,443.48h-3.39c-.61,0-1.13.15-1.15.87s.47.9,1.1.91c2.19.05,4.39.12,6.58.16.65,0,1.11.14,1.21.92a1.11,1.11,0,0,1-.9,1.44c-2.43.7-4.84,1.48-7.29,2.15s-4.08-.05-5.4-2.2a13.6,13.6,0,0,1,6.53-19.87c1.89-.78,3.75-.66,5.12.88,1.93,2.17,3.64,4.53,5.43,6.82.5.65-.17,1-.49,1.37a.81.81,0,0,1-1.25.14q-2.57-1.8-5.16-3.56c-.57-.4-1.24-1.09-1.85-.26s.28,1.31.86,1.72c1.63,1.14,3.28,2.25,4.9,3.39.4.28,1,.5.64,1.19s-.83.43-1.32.28c-2.61-.85-5.21-1.68-7.81-2.55a2.51,2.51,0,0,1-1-.7,1.94,1.94,0,0,0-3.25,2.07,2,2,0,0,0,2.44,1,2.19,2.19,0,0,1,1.16-.05c2.59.8,5.16,1.63,7.72,2.51a1.4,1.4,0,0,1,.84.91c0,.72-.6.67-1.12.66h-3.19Z" transform="translate(-667.26 -388.77)"/>
  <path class="cls-2" d="M739.41,443.82c-1.17,0-2.34,0-3.5,0-.32,0-.62-.37-.93-.57.23-.31.4-.81.7-.92,2.72-.93,5.46-1.81,8.21-2.68a2.19,2.19,0,0,1,1,.05,1.94,1.94,0,0,0,1.45-3.57,2,2,0,0,0-2.55.63,2.31,2.31,0,0,1-1,.76c-2.53.86-5.08,1.67-7.62,2.5-.5.16-1.1.4-1.26-.31a1.4,1.4,0,0,1,.54-1.1c1.75-1.27,3.54-2.48,5.32-3.7.51-.35,1-.76.56-1.42s-1-.41-1.6,0c-1.74,1.21-3.5,2.4-5.23,3.63-.58.41-1,.56-1.6-.05a1.11,1.11,0,0,1-.06-1.69c1.54-2,3-4,4.58-5.95s3.37-2.42,5.74-1.41a13.58,13.58,0,0,1,6.42,19.77,4.48,4.48,0,0,1-5.2,2.37c-2.6-.61-5.14-1.46-7.71-2.19-.67-.19-.78-.63-.68-1.26s.3-1.08,1.06-1.09c2,0,4-.07,6-.11l.82,0c.62,0,1.18-.28,1-.94a1.45,1.45,0,0,0-1.07-.79c-1.12-.11-2.25,0-3.38,0Z" transform="translate(-667.26 -388.77)"/>
  <path class="cls-2" d="M722.23,461.34c0,1.34.06,2.68,0,4a4.2,4.2,0,0,1-3.38,4.12,13.64,13.64,0,0,1-17.23-12.11c-.18-2.37.63-4,2.82-5,2.48-1.07,5.07-1.87,7.62-2.79.79-.29,1,.31,1.28.81a.86.86,0,0,1-.29,1.31c-1.62,1.22-3.22,2.45-4.82,3.68-.22.16-.54.29-.63.51-.17.42-.4,1-.24,1.31.28.56.86.42,1.32.06l4.66-3.55a5.6,5.6,0,0,1,1-.73c.25-.11.74-.12.87,0a1,1,0,0,1,.17.94q-2.61,3.69-5.3,7.33a1.87,1.87,0,0,1-.69.4,1.9,1.9,0,0,0-1.23,2.3,1.92,1.92,0,0,0,2.1,1.44,2,2,0,0,0,1.71-2.09,2.12,2.12,0,0,1,.36-1.11c1.54-2.18,3.12-4.33,4.69-6.49.3-.42.58-.92,1.23-.57s.36.88.19,1.35c-.69,2-1.41,4-2.11,6-.22.61-.37,1.26.45,1.52s1-.34,1.22-.92c.71-2,1.43-4,2.11-6,.22-.66.49-1.07,1.31-.92a1.12,1.12,0,0,1,1.06,1.33c0,1.27,0,2.54,0,3.8Z" transform="translate(-667.26 -388.77)"/>
  <path class="cls-2" d="M731.76,469.93c-5.35-.1-7.24-1.73-7.25-6.89q0-2.78-.09-5.55c0-.72.25-1,1-1.16s1.14,0,1.39.75c.68,2.05,1.43,4.07,2.14,6.11.22.63.5,1.24,1.28,1s.61-.94.39-1.56q-1.07-3-2.11-6c-.17-.49-.46-1.09.26-1.27a1.35,1.35,0,0,1,1.12.5c1.67,2.21,3.29,4.47,4.9,6.73a2.54,2.54,0,0,1,.35,1.13,1.93,1.93,0,0,0,3.82.23,2,2,0,0,0-1.25-2.22,3.51,3.51,0,0,1-1.32-1c-1.55-2.05-3-4.14-4.55-6.22-.3-.42-.69-.83-.15-1.34s.94-.07,1.33.23c1.7,1.28,3.38,2.57,5.07,3.87.53.4,1.09.72,1.59,0s0-1.07-.51-1.44c-1.69-1.29-3.37-2.59-5.07-3.87-.56-.41-.86-.78-.46-1.53a1.11,1.11,0,0,1,1.59-.59c2.35.85,4.72,1.63,7.06,2.51a4.37,4.37,0,0,1,3.15,5A13.44,13.44,0,0,1,731.76,469.93Z" transform="translate(-667.26 -388.77)"/>
  <path class="cls-2" d="M724.79,428.19c0-1.06-.06-2.13,0-3.18a9.79,9.79,0,0,1,.5-2.33,2,2,0,0,0-.7-2.37,2,2,0,0,0-2.38.16,1.77,1.77,0,0,0-.35,2.41,2.93,2.93,0,0,1,.54,2.1c0,2.47,0,4.94,0,7.4,0,.37-.39.74-.6,1.1-.31-.28-.79-.51-.91-.86-.65-2-1.22-4-1.82-6-.2-.65-.35-1.5-1.3-1.19s-.57,1.09-.38,1.74c.58,2,1.15,3.95,1.77,5.91a1,1,0,0,1-.62,1.47,1,1,0,0,1-1.54-.45c-1.42-2.1-2.9-4.16-4.3-6.28s-1.23-3.89.42-5.81a13.59,13.59,0,0,1,20.92.07,4.39,4.39,0,0,1,.62,5.43c-1.43,2.37-3.07,4.61-4.63,6.91-.44.65-.92.29-1.43.07a.86.86,0,0,1-.6-1.2c.6-2,1.18-3.94,1.77-5.91.08-.26.26-.55.21-.78a6.93,6.93,0,0,0-.52-1.19c-.38.24-1,.4-1.12.73-.67,1.94-1.22,3.92-1.81,5.89a2.38,2.38,0,0,1-.25.78,4.71,4.71,0,0,1-.84.68c-.21-.29-.6-.58-.61-.88-.07-1.47,0-2.94,0-4.42Z" transform="translate(-667.26 -388.77)"/>
  <path class="cls-2" d="M723.56,455.24a10.34,10.34,0,1,1,10.38-10.3A10.33,10.33,0,0,1,723.56,455.24Zm0-2.78a7.56,7.56,0,1,0-7.53-7.63A7.58,7.58,0,0,0,723.58,452.46Z" transform="translate(-667.26 -388.77)"/>
  <path class="cls-4" d="M723.58,452.46a7.56,7.56,0,1,1,7.58-7.59A7.55,7.55,0,0,1,723.58,452.46Z" transform="translate(-667.26 -388.77)"/>
</svg>
