<svg height="52.66" viewBox="0 0 312.66 52.66" width="312.66" xmlns="http://www.w3.org/2000/svg"><g fill="#990014"><path d="m56.38 50.42c-4.24-.93-7.53-3-11.12-6.59-3.95-4-18.06-20.68-18.06-20.68l22.5-21.36h-12.17l-20.53 20.09a21.28 21.28 0 0 0 -1.88 2h-.12c0-.67.06-1.38.06-2.07v-16.05a4 4 0 0 0 -4-4h-10.63a.37.37 0 0 0 -.19.72c1.62.77 2.88 1.64 2.88 4.52v43.87h11.93v-22.61c0-.58 0-1-.06-1.68h.12a26.81 26.81 0 0 0 1.89 2.42s12.53 14.69 13.86 16.07c5.31 5.56 12.74 7.53 25.47 6.3.67-.07.67-.81.05-.95z"/><path d="m79.55 0c-16.55 0-28.77 11.53-28.77 26.34s11.22 26.32 28.77 26.32c16.55 0 28.76-11.53 28.76-26.32s-11.24-26.34-28.76-26.34zm0 47.64c-9.88 0-15.55-9.64-15.55-20.64 0-12.74 5.67-22 15.55-22s15.51 9.65 15.51 20.69c0 13.05-5.64 21.95-15.51 21.95z"/><path d="m290.66 50.87-7.33-44.78a5.22 5.22 0 0 0 -5-4.3h-6.87l-12 27.94c-.56 1.26-.91 2.23-1.18 3h-.06c-.25-.77-.6-1.69-1.08-2.81l-10.67-24.92a5.2 5.2 0 0 0 -4.76-3.18h-10.55a.37.37 0 0 0 -.19.72c1.43.65 2.46 1.7 2 4.45l-7.2 43.91h7.59l4.8-31c.23-1.58.51-3.5.6-4.48h.05c.48 1.28 1.09 2.81 1.77 4.39l13.23 31.06h3.93l13.39-31.61c.77-1.88 1.29-3.19 1.64-4.2h.07c.15 1.21.39 3 .67 4.91l5 30.9z"/><path d="m308.69 1.79h-11.13a.37.37 0 0 0 -.19.72c1.61.74 2.88 1.61 2.88 4.49v43.87h12.41v-45.11a4 4 0 0 0 -3.97-3.97z"/><path d="m155.87 1.79v28.06c0 1.37.07 2.24.12 3.47h-.12c-1-1.33-2-2.7-3.54-4.51l-21.09-24.4c-1.66-1.89-3-2.61-6-2.62h-10.73a.37.37 0 0 0 -.18.72c1.62.74 2.88 1.61 2.88 4.49v43.87h8v-31.55c0-1.7-.07-3-.12-4.42h.12c1.48 2 3.52 4.64 5.17 6.54l25.32 29.43h4.21a4 4 0 0 0 4-4v-45.08z"/><path d="m209.13 50.87h13.52l-21.33-46a5.15 5.15 0 0 0 -4.67-3h-9.33a.37.37 0 0 0 -.18.72 3.26 3.26 0 0 1 1.1 4.22l-20.63 44.06h9.12l5.13-11.31h22.27zm-24.58-17.24 7.68-16.92a18.66 18.66 0 0 0 .83-2h.13c.15.49.47 1.24.83 2.06l7.48 16.89z"/></g></svg>