<svg height="13.5" width="64.2" xmlns="http://www.w3.org/2000/svg"><path d="m6.8 0v2.3h-1.5c-4.4 0-5.3 3.3-5.3 5.6 0 1.7.5 3.2 1.5 4.2.8.9 1.9 1.3 3.2 1.3.9 0 1.6-.2 2.1-.5v.2h2.9v-13.1zm-4 7.9c0-1.1.3-3 2.4-3.2.3 0 1-.1 1.6-.1v5.8c-.4.3-1 .5-1.6.5-.7 0-1.2-.2-1.6-.5-.6-.6-.8-1.4-.8-2.5zm14.4 3c-1.6 0-2.4-.9-2.7-2.3h7v-.1-2.2c-.1-1.3-.5-2.3-1.3-3-.8-.8-2-1.2-3.4-1.2-1.7 0-3.1.6-4 1.8-.8 1-1.3 2.5-1.3 4.1 0 2.7 1.5 5.5 5.8 5.5 1.6 0 3.2-.5 4.1-1v-2.7c-.5.3-2.1 1.1-4.2 1.1zm-.4-6.4c1.1 0 1.8.8 1.9 1.7h-4.1c.3-1 1-1.7 2.2-1.7zm13.5 2.3v6.5h2.9v-7c0-2.9-1.3-4.3-4.1-4.3-.9 0-2 .4-2.4.5v-.2h-2.9v10.9h2.9v-8.2c.6-.4 1.6-.6 2.4-.4.8.3 1.2.8 1.2 2.2zm5.4-6.8v9.5c0 1.3.2 2.2.7 2.9.6.8 1.5 1.1 2.8 1.1 1.1 0 2.1-.2 2.7-.4v-2.6c-.4.1-1.5.3-2.2.3-.4 0-.7-.1-.9-.3-.3-.3-.3-.7-.3-1.2v-4.6c1.1 0 2.6.1 3.4.2v-2.6h-3.4v-2.3zm16.7 7.9c-.6-.8-1.5-1.2-3.1-1.5-.7-.1-1.5-.3-2-.5-.2-.1-.3-.3-.3-.5s.1-.4.3-.5c.4-.2 1.2-.3 2.4-.1 1.1.2 2.3.6 2.7.8v-2.6c-1.3-.7-2.5-1-3.9-1-1.2 0-2.3.3-3.1.9s-1.3 1.5-1.4 2.6c0 1.9 1.1 3 3.7 3.5.5.1 1.3.3 1.7.4.3.1.5.4.5.6s-.2.5-.4.6c-.5.2-1.3.2-1.8.1-1.5-.1-2.9-.7-3.5-.9v2.7c.9.5 2.3 1 3.9.9 1.9 0 4.3-.6 4.7-3.1.2-.9.1-1.7-.4-2.4zm5.4.9v-6.5h-2.9v6.9c0 2.9 1.3 4.3 4.1 4.3.9 0 2-.3 2.4-.5v.2h2.9v-10.9h-2.9v8.2c-.6.4-1.6.6-2.4.4-.9-.2-1.2-.7-1.2-2.1z" fill="#fff"/></svg>