<svg xmlns="http://www.w3.org/2000/svg" width="180.32mm" height="51.35mm" viewBox="0 0 511.14 145.55">
  <title>アセット 1</title>
  <g id="レイヤー_2" data-name="レイヤー 2">
    <g id="レイヤー_1-2" data-name="レイヤー 1">
      <g>
        <path d="M303.82,24.35l1.78-3.55-12.44-4.44-1.77,3.55H263l.88,4.44Zm-40,8,.89,4.44h35.52l1.78-3.55-12.43-4.44-1.78,3.55Zm38.19,13.31-12.43-4.44-1.78,3.56h-24l.89,4.44h35.52Zm-1.78-33.73,1.78-3.56L289.62,3.93l-1.78,3.55h-24l.89,4.44Zm38.18,73.69h-5.33v-40h18.64l1.77-3.55-13.32-4.43-1.76,3.54h-5.33V11.92h18.64l1.77-3.56L338.45,3l-2.67,4.44H302.93l.89,4.44h17.75V85.61h-7.1V41.21c0-4.43,2.67-5.32,4.45-5.32V33.23l-15.1-3.56V85.61h-7.1V67c0-2.67.89-4.44,2.66-4.44l.89-2.67-12.43-4.44-2.54,4.44h-5.2l-14.46-5.33V90.94H276.3V85.61h9.76v5.33h10.66v-.89h57.7l1.78-3.55-15.09-5.33Zm-52.39-4.44H276.3V64.3h9.76ZM151.7,28.79l-16.86-5.33-2.66,4.44H109.09V11c0-4.44,3.55-5.33,4.44-5.33V3L95.77,1.26V27.9H61.14L62,32.34H95.77c0,25.74-14.21,48.83-35.51,55.93v3.55c28.87-6.6,46.22-23.95,48.54-52.73,2.76,23,14.1,44.86,38.47,52.73A17.76,17.76,0,0,0,150,85.39a25.83,25.83,0,0,0,.82-6.77C129.2,70,116,54.46,111.26,32.34h38.67Zm38.19.88h-2.67v-17A47.36,47.36,0,0,0,193.44,11c3.91-1.43,4.11-1.33,6.21,0l1.77-1.78-9.76-8a116,116,0,0,1-32,11.55v2.66c5.17-.06,10.75-.42,16-1v15.2h-16l.88,4.44h11.94c-2.3,17.37-8.3,32-14.6,39.07v4.44c5.42-3.28,14.18-12.13,17.76-19.48v32.8h11.54v-51c2.95,1.87,4.44,5.49,4.44,21.7H203.2c0-10.33-6.68-23.12-16-23.9V34.11h15.09l1.78-3.55-12.43-4.44Zm43.56-19.53H215.63V8.25L204.09,3.93v87h11.54V85.61h20v5.33h11.55V17.25c0-2.67.88-3.56,2.66-3.56l1.77-3.55L236.49,4.81Zm2.15,71h-20V14.58h20Zm190.63-40H449l1.77-3.54-15.09-5.33-2.66,4.44H422.19a59.76,59.76,0,0,1-6.89-10.66h31.06l1.78-3.55-15.09-5.32-2.67,4.43H417.56c4.89-3.25,10.69-9.11,13.71-12.43,1.54-1.69,2.72-1.54,4.44-.89l.94-2-16-4.23a60.66,60.66,0,0,1-8.32,19.53h-7.4a82.73,82.73,0,0,0,4.31-14.3c.43-2.22,1.32-2.51,3.17-2.59l.73-2.06L395.91,0a138.49,138.49,0,0,1-3.63,21.68h-27.6l.89,4.44H391a63.59,63.59,0,0,1-4.48,10.66H362.91l.88,4.43h20c-5.17,7.65-12.39,13.88-22.67,18.65V64.3A64.22,64.22,0,0,0,378.28,56l.61,3h8.75c-2.07,15.51-12.52,26.67-23.85,28.41v3.56c17.49,0,34.94-12.93,37.17-32h16.11V80.28H401.45V83h1.27c8,0,9,4.43,9,8h5.89c5.95-.17,10.94-2.86,10.94-8.87V61.64c0-2.2.64-3.15,1.84-3.43a52.75,52.75,0,0,0,16,9.64s1.32-1.52,2.57-6a22.06,22.06,0,0,0,1-6.47c-9-3.16-17-7.6-23.76-14.21M403,26.12h8.12a69.92,69.92,0,0,0,3.76,10.66H397a82,82,0,0,0,6-10.66m15,24-3,4.44H380.3a68.52,68.52,0,0,0,13.5-13.32H417A63,63,0,0,0,424.35,52Zm-26.64-32C388.66,6.59,379.78,3,372.67,1.26V3.93c2.67,3.55,5.33,8,5.33,14.2Z" style="fill: #d9340a;fill-rule: evenodd"/>
        <rect y="104.48" width="511.14" height="5.66" style="fill: #d8a500"/>
        <path d="M237.24,123.45c0-2.63.51-4.27,2.67-4.27,2.31,0,2.64,2.22,2.64,5.26h5.28c.36-6-2.26-8.66-7.54-8.66-6.61,0-8.55,3.59-8.55,8.1,0,8.58,10.92,8.33,10.92,13.8,0,3.08-.9,4.47-2.73,4.47-3,0-3.09-2.4-3.09-6h-5.42c-.29,5,1,9.38,7.68,9.38,4.13,0,9.05-.88,9.05-8.34,0-9.06-10.91-8.07-10.91-13.76m36.31,19.34c-1.87,0-2.43-1.23-2.43-8.38,0-5.62.27-7.32,2.42-7.32,1.58,0,2.18,1.6,2.18,5h5.07c0-5.27-2.66-7.58-7.33-7.58-6.68,0-7.4,4.71-7.4,10.21,0,6.31.86,10.74,7.4,10.74,4.74,0,7.39-2.36,7.39-7.82h-5.06c0,3.81-.59,5.14-2.24,5.14m23.21-17.87H291.7v13.8c0,2.06-.53,3.45-1.9,3.45-1.62,0-1.91-.86-1.91-3.28v-14h-5.06v16.16a4.29,4.29,0,0,0,4.52,4.39,4.4,4.4,0,0,0,4.28-2.44h.07v2h5.24c-.1-1.32-.18-2.67-.18-4Zm7.29,2.59H304v-2.59h-4.81v20.15h5.06V133.53c0-2,0-4.91,4.5-4.59h.95v-4.42h-.95a4.51,4.51,0,0,0-4.68,3m21.27-6.82h-5.05v4.23h-2v2.9h2v13c0,1.24.57,4.47,5,4.47a18.63,18.63,0,0,0,2.62-.2v-2.9a3.14,3.14,0,0,1-.9.08c-1.65,0-1.62-1-1.62-2.52V127.82H328v-2.9h-2.63ZM359,129.54c0-1.48.52-2.45,1.8-2.45,1.12,0,1.82.55,1.8,2.76v.85h4.95c.29-4.35-2.84-6.18-6.28-6.18-3.27,0-7.15,1.32-7.15,5.67,0,6.65,8.9,5.09,8.9,9.73,0,1.72-.46,2.82-1.86,2.82a1.83,1.83,0,0,1-1.86-1,10.38,10.38,0,0,1-.23-3.1H354.1c-.29,5.63,2.66,6.87,7.07,6.87,4.21,0,6.79-2.64,6.79-6.14,0-6.71-9-6-9-9.79M201.91,140.2h-.07l-2.07-15.28H195l-2.24,15.28h-.08l-1.86-15.28h-4.31l3.19,20.15h5.85l1.82-13.76h.07L199,145.07h5.89l3.37-20.15h-4.33Zm143.46-15.68c-6.68,0-7.39,4.71-7.39,10.21,0,6.31.86,10.74,7.39,10.74a7.12,7.12,0,0,0,5.35-2,7.55,7.55,0,0,0,1.94-5.22h-4.87c0,2.92-.49,4.5-2.28,4.5s-2.44-1.18-2.44-7.18h9.7c.18-6.47-.57-11.09-7.4-11.09m-2.3,8.5c0-3.42,0-5.94,2.3-5.94s2.34,2.82,2.34,5.94ZM223,131.27c0-3.68-.83-6.75-7.26-6.75a7.24,7.24,0,0,0-4.73,1.32c-1.19.92-1.87,2.47-1.87,4.9h5c0-2.37.23-3.78,2-3.78s2,1.41,2,3.67v1.55c-4.7-.08-9.34.2-9.34,6.87,0,3.51,1.3,6.42,4.82,6.42a5,5,0,0,0,4.74-3.07h.07l.22,2.67h4.7c-.11-1.24-.25-2.51-.25-3.75ZM215.49,142c-1.29,0-1.87-1.07-1.87-3.2,0-3.59,1.76-4.26,4.38-4.26,0,3.76.47,7.46-2.51,7.46m-63.34-25.74H143.1v28.81h8.83c9.27,0,8.66-10.14,8.66-14.56,0-9-1.33-14.25-8.44-14.25m-1,25.29h-2.62V119.78h2.8c3.77,0,3.77,5.58,3.77,10.89,0,7.22-.64,10.88-4,10.88m25.67-10.28c0-3.68-.83-6.75-7.26-6.75a7.27,7.27,0,0,0-4.74,1.32c-1.18.92-1.86,2.47-1.86,4.9h5c0-2.37.23-3.78,2-3.78s2,1.41,2,3.67v1.55c-4.7-.08-9.34.2-9.34,6.87,0,3.51,1.3,6.42,4.82,6.42a5,5,0,0,0,4.74-3.07h.07l.22,2.67h4.7c-.11-1.24-.25-2.51-.25-3.75ZM169.34,142c-1.29,0-1.87-1.07-1.87-3.2,0-3.59,1.76-4.26,4.38-4.26,0,3.76.47,7.46-2.51,7.46m10.48-21.31h5.07v-4.43h-5.07Zm0,24.38h5.07V124.92h-5.07Zm77.3-20.55c-6.68,0-7.4,4.71-7.4,10.21,0,6.31.86,10.74,7.4,10.74a7.14,7.14,0,0,0,5.35-2,7.55,7.55,0,0,0,1.94-5.22h-4.88c0,2.92-.48,4.5-2.28,4.5s-2.43-1.18-2.43-7.18h9.7c.18-6.47-.58-11.09-7.4-11.09m-2.3,8.5c0-3.42,0-5.94,2.3-5.94s2.33,2.82,2.33,5.94Zm56.44-12.33h5.07v-4.43h-5.07Zm0,24.38h5.07V124.92h-5.07Zm19.23,0h5.06V124.92h-5.06Zm0-24.38h5.06v-4.43h-5.06Z" style="fill: #d9340a;fill-rule: evenodd"/>
      </g>
    </g>
  </g>
</svg>
