<svg xmlns="http://www.w3.org/2000/svg" viewBox="0 0 272.52 61.37"><defs><style>.cls-1{fill:#fff;}</style></defs><title>アセット 1</title><g id="レイヤー_2" data-name="レイヤー 2"><g id="レイヤー_1-2" data-name="レイヤー 1"><rect class="cls-1" x="204.38" y="34.76" width="30.22" height="5.44"/><polygon class="cls-1" points="116.64 50.42 116.64 36.99 126.86 36.99 126.86 31.83 101 31.83 101 36.99 111.21 36.99 111.21 50.42 99.63 50.42 99.63 55.56 128.22 55.56 128.22 50.42 116.64 50.42"/><path class="cls-1" d="M193.71,38.94c0,10.39-11.07,12.55-16,12.55V57c8.87,0,21.6-3.63,21.61-18h0V22h-5.62S193.71,33.4,193.71,38.94Z"/><rect class="cls-1" x="174.41" y="22.03" width="5.64" height="21.51"/><rect class="cls-1" x="89.75" y="22.03" width="4.78" height="6.56"/><rect class="cls-1" x="83.06" y="22.03" width="4.78" height="6.56"/><path class="cls-1" d="M61.2,57.06c8.27,0,33.33.54,33.33-25.21H89.11c-.75,19.51-18.81,19.86-27.9,19.86Z"/><rect class="cls-1" x="59.58" y="22.03" width="16.41" height="5.22"/><rect class="cls-1" x="59.58" y="31.86" width="16.41" height="5.22"/><path class="cls-1" d="M168.08,22h-6s-3.58,13.54-29,13.54v5.19a60.79,60.79,0,0,0,16.38-2V57h5.83V36.61C167,31.1,168.08,22,168.08,22Z"/><path class="cls-1" d="M272.52,50.73l-10-7c3.28-4.47,5.7-10.43,6.22-18.4h0a3.3,3.3,0,0,0-3.3-3.3h-26.1v5.42h23.49C259.52,49.6,237.56,51.6,237.56,51.6V57s12-.62,21.14-9l13.82,9.64Z"/><path class="cls-1" d="M92.19,2.11c.33,0,.88.19.88.53,0,.14-.13.2-.41.25-.67.11-1.39.26-2.1.41.3.53.61,1.07.91,1.58a8.26,8.26,0,0,0,1-.28c.16-.09.2-.19.37-.21a.41.41,0,0,1,.15,0,.66.66,0,0,1,.7.48c0,.17-.5.4-1.78.73.37.59.71,1.13,1,1.54a.85.85,0,0,1,.16.39.41.41,0,0,1-.38.41l-.27,0c-.54-.09-1.13-.25-1.4-.3s-.31-.14-.31-.21.38-.23,1.26-.27l-.84-1.35a10.71,10.71,0,0,1-2.25.36c-1,0-1.32-.2-1.32-.44s0-.22.3-.22h.29a11.11,11.11,0,0,0,2.56-.39c-.31-.52-.63-1.06-.92-1.59-.78.18-1.52.4-2.11.59a2.33,2.33,0,0,1-.65.19,1.11,1.11,0,0,1-.85-.62c0-.12.18-.12.22-.12s.15,0,.23,0a1.56,1.56,0,0,0,.56-.08c.74-.24,1.49-.45,2.26-.64l-.73-1.33a1,1,0,0,0-.28-.31c-.1-.08-.25-.1-.25-.24s.33-.18.55-.18c.41,0,.47.08.59.3l.86,1.58,1.56-.36c.16,0,.18-.17.38-.19ZM87.44,9.7a1.7,1.7,0,0,1-.73-1.36c0-.45.24-.58.28-.58s.23.16.24.43a.9.9,0,0,0,.32.61,6.22,6.22,0,0,0,3.35,1.46c.7,0,.84.76.84.8,0,.2-.18.29-.41.29l-.25,0A10.08,10.08,0,0,1,87.44,9.7Z"/><path class="cls-1" d="M105.38,3.25c0,.27-.24.33-3.24.89-.19,1.29-.37,2.69-.42,3.43a6.31,6.31,0,0,1,3.64-1.34c1.17,0,2.08.48,2.28,1.42a3.77,3.77,0,0,1,0,.44c0,2.63-5,3.24-5.33,3.24-.09,0-.16,0-.17-.08s0,0,0-.05.11-.16.36-.24c1.68-.5,4.24-1.36,4.24-3,0,0,0-.09,0-.15,0-.59-.7-.89-1.49-.89l-.41,0a5.76,5.76,0,0,0-3.13,1.59.58.58,0,0,1-.31.12.52.52,0,0,1-.51-.53c0-.11,0-.21,0-.31,0-.66.21-2.12.41-3.55a11.58,11.58,0,0,1-1.49.22,1,1,0,0,1-.79-.72s0-.08.11-.08a1.5,1.5,0,0,1,.26.05c.11,0,.19,0,.29,0s.89-.11,1.71-.24c.14-1,.28-1.84.37-2.31V1.16a.69.69,0,0,0,0-.2c0-.09-.14-.17-.14-.23s0,0,0,0,.08-.07.17-.07.83.08.83.53a.45.45,0,0,1,0,.16c-.08.33-.22,1.14-.37,2.09a9.61,9.61,0,0,0,2-.49.75.75,0,0,1,.28-.11h.08c.27,0,.72.21.74.45Z"/><path class="cls-1" d="M113.49,9.29a6.35,6.35,0,0,0-.54,1.14.61.61,0,0,1-.48.38c-.19,0-.37-.41-.37-.67a.71.71,0,0,1,0-.21c.06-.15.14-.19.2-.33s3.48-7.74,3.48-7.93-.13-.31-.13-.41a.12.12,0,0,1,0-.07.19.19,0,0,1,.16-.07c.17,0,.87.21.87.6a.89.89,0,0,1-.13.41c-.16.32-1.8,3.66-2.62,5.47.49-.5,1.35-1.44,1.68-1.76a.46.46,0,0,1,.32-.12.65.65,0,0,1,.62.51.19.19,0,0,1,0,.1.38.38,0,0,0,0,.16c0,.15,0,.32,0,.52,0,1.09.33,2.84,1.63,2.84,1.78,0,3.27-2.71,3.64-3.51.17-.35.3-.55.38-.55s.07,0,.07.17c0,1.09-1.57,4.72-4.09,4.72-2,0-2.43-2.54-2.44-3.89A20.4,20.4,0,0,0,113.49,9.29Z"/><path class="cls-1" d="M133.42,9.54a.67.67,0,0,1,.73.57c0,.19-.13.29-.46.38a14.24,14.24,0,0,1-3.06.28c-2.27,0-3.76-.54-3.8-2v0c0-1.14,1.21-2.25,2.61-3.08A28.4,28.4,0,0,1,128.15,2a.92.92,0,0,0-.19-.28c-.06-.08-.23-.13-.23-.22s0,0,0,0,.3-.17.62-.17.48,0,.57.34a29.81,29.81,0,0,0,1.25,3.61A25.14,25.14,0,0,1,132.76,4c.2-.08.2-.38.35-.44h0c.21,0,.43.64.43.9s-.11.31-.64.45c-1.68.49-5.25,2.17-5.25,3.72v0c0,.78.93,1.11,2.2,1.21h.43a10.64,10.64,0,0,0,2.94-.32Z"/><path class="cls-1" d="M139.85,11.47A14.13,14.13,0,0,0,138,9.37a.25.25,0,0,1-.09-.21.36.36,0,0,1,.35-.33,8.34,8.34,0,0,1,2.4,1.77.43.43,0,0,1,.13.33c0,.33-.29.74-.6.74A.36.36,0,0,1,139.85,11.47Z"/><path class="cls-1" d="M156.1,6.53a11.69,11.69,0,0,1-4.57,2.11c-.13,0-.2,0-.2-.1s.15-.24.45-.37a16.36,16.36,0,0,0,3.94-2.35,2.61,2.61,0,0,0-.46-.49,10.37,10.37,0,0,1-2.91,1.15,2.51,2.51,0,0,1-.32,0c-.13,0-.2,0-.2-.1s.15-.21.41-.31a12.76,12.76,0,0,0,3.24-1.79l-1.65.11h-.36c-.43,0-.59-.1-.8-.57a.32.32,0,0,1-.06-.16c0-.06,0-.09.11-.09l.15,0a2.73,2.73,0,0,0,.64.06h.2l4.3-.23a2.84,2.84,0,0,0,.78-.15.42.42,0,0,1,.18,0c.37,0,.64.52.64.58s-.22.21-.43.23l-2.43.14a7.76,7.76,0,0,1-.86.7A4.13,4.13,0,0,1,157,6.49a4.67,4.67,0,0,0,2.43-1.68c0-.1.11-.17.17-.17s.48.51.48.83a.24.24,0,0,1-.07.19,12.13,12.13,0,0,1-2.8,1.46,16.54,16.54,0,0,0,5.22,2.66c.13,0,.21.09.21.17s-.55.61-.71.61a16.08,16.08,0,0,1-4.45-2.4,7.5,7.5,0,0,1,.17,1.42c0,.15,0,.31,0,.45a2.8,2.8,0,0,1-.57,1.83.77.77,0,0,1-.57.3c-.58,0-2.08-1.37-2.08-1.86,0-.06,0-.08.07-.08a1,1,0,0,1,.45.21,5.17,5.17,0,0,0,1.45.74c.23,0,.39-.85.39-1.67a7.2,7.2,0,0,0-.12-1.29A13.58,13.58,0,0,1,151,10.89c-.13,0-.18,0-.18-.09s.16-.25.46-.4a23.45,23.45,0,0,0,5.07-3.08,2.5,2.5,0,0,0-.09-.25Zm-3.45-3.89a12.91,12.91,0,0,1-.71,1.7c-.07.11-.13.22-.26.22a.84.84,0,0,1-.61-.46.19.19,0,0,1,0-.12,10.1,10.1,0,0,0,1-2.62.31.31,0,0,1,.32-.26c.14,0,.51.09.51.33a1.56,1.56,0,0,1-.1.49l3-.18v-1a.82.82,0,0,0-.2-.53.19.19,0,0,1-.08-.14c0-.07.09-.11.24-.11s1,.19,1,.44V1.69l4.28-.25h.16c.2,0,.59.25.59.5s-.18.25-.26.37c-.89,1.33-1.52,1.82-1.76,1.82-.05,0-.08,0-.08-.08a.9.9,0,0,1,.19-.42,8.41,8.41,0,0,0,.75-1.41Z"/><path class="cls-1" d="M166.87,2.54a5.91,5.91,0,0,1-2,.92c-.09,0-.14,0-.14-.08s.12-.19.34-.33a11.1,11.1,0,0,0,3-2.4.76.76,0,0,0,.12-.41c0-.09,0-.13.12-.13s.7.3.7.58a.19.19,0,0,1,0,.12,11.33,11.33,0,0,1-1.37,1.27l0,2.84c0,.13-.06.21-.18.21s-.62-.12-.62-.53c0,0,0-.09,0-.15a4.93,4.93,0,0,0,.08-1ZM165.94,12h-.12c-.13,0-.2,0-.2-.1s.08-.15.26-.22a12.7,12.7,0,0,0,2.82-1.33A.78.78,0,0,0,169,10c0-.06.07-.12.13-.12s.65.61.65.89a.17.17,0,0,1-.13.18A12.46,12.46,0,0,1,165.94,12Zm2.42-2.29V10c0,.19-.08.28-.24.28s-.62-.11-.62-.48c0,0,0-.06,0-.1a2.38,2.38,0,0,0,0-.46c0-.1,0-.19,0-.28l-.13-2.79a1.69,1.69,0,0,0-.11-.57.35.35,0,0,1-.05-.18c0-.08,0-.12.14-.12a2.32,2.32,0,0,1,.78.22l5-.28h.15c.11,0,.58.12.58.4,0,.09-.07.17-.08.24l-.24,3c.22.24.32.38.32.47s-.16.14-.36.15Zm1.79-5h-.26a.9.9,0,0,1-.46-.07,1.06,1.06,0,0,1-.35-.49.25.25,0,0,1,0-.08.07.07,0,0,1,.07-.07h.06a2.46,2.46,0,0,0,.66.11h.08l1.63-.11v-1l-2.31.13H169a.78.78,0,0,1-.82-.56.19.19,0,0,1,0-.08s0-.06.08-.06h.07a3.29,3.29,0,0,0,.63.08h.08l2.52-.16,0-.82c-.74.13-1.43.21-2.09.27h-.09c-.2,0-.29-.06-.29-.14s.13-.17.37-.22a23,23,0,0,0,3.67-1.1,1.22,1.22,0,0,0,.45-.34c.05-.07.09-.11.16-.11s.21.1.39.37a.83.83,0,0,1,.2.4c0,.08-.06.13-.17.17a15.11,15.11,0,0,1-1.86.56v.91l2.24-.15a2.14,2.14,0,0,0,.64-.12h.1a.84.84,0,0,1,.65.53c0,.09-.08.17-.26.19l-3.39.19V4L173.79,4a2.77,2.77,0,0,0,.62-.06.32.32,0,0,1,.16,0c.18,0,.58.33.58.52s-.09.15-.26.16ZM173,5.89l-4.78.26,0,.59L173,6.5Zm-.07,1.18-4.66.23,0,.6,4.6-.21Zm-.08,1.2-4.54.2,0,.66L172.8,9Zm1.61,3.63a18.45,18.45,0,0,0-2.68-1.26c-.19-.07-.28-.15-.28-.29s.08-.49.34-.49a17.46,17.46,0,0,1,3,1.19c.2.11.29.19.29.33s-.11.62-.38.62A.6.6,0,0,1,174.45,11.9Z"/><path class="cls-1" d="M179.79,4.75a6.78,6.78,0,0,1-2,2.14c-.06,0-.08,0-.08-.1a.71.71,0,0,1,.17-.37,16.64,16.64,0,0,0,3-5.68,1.65,1.65,0,0,0,0-.21s0,0,0-.07.07-.13.16-.13c.24,0,.85.32.85.54a.56.56,0,0,1,0,.15,15.84,15.84,0,0,1-1.25,2.63l0,8a.23.23,0,0,1-.24.25s-.63-.07-.63-.54a.81.81,0,0,1,0-.15,3.88,3.88,0,0,0,.07-.71Zm6.42,2.07a15.84,15.84,0,0,0,3.73,2.95c.13.08.21.14.21.22a1,1,0,0,1-.65.56,13.19,13.19,0,0,1-3.75-3.25v4.48c0,.23-.08.35-.24.35s-.64-.15-.64-.47a.62.62,0,0,1,0-.13,6.29,6.29,0,0,0,.07-1.15s0-1.13,0-2c0-.45,0-1.19,0-1.19a8.43,8.43,0,0,1-4,3.53c-.07,0-.1,0-.1-.08s.09-.21.31-.38a13.92,13.92,0,0,0,3.18-3.35l-1.76.1-.43,0c-.51,0-.71-.71-.71-.75s0-.08.09-.08h.1a1.37,1.37,0,0,0,.5.08h.16L185,6.16V5.54a1.48,1.48,0,0,0-.13-.64.38.38,0,0,1-.07-.17c0-.06,0-.09.17-.09s.81,0,.81.44v1L188,6a2.2,2.2,0,0,0,.62-.12h.11c.14,0,.67.33.67.62,0,.11-.08.16-.21.18Zm-2.5-2.23,0,.3v0c0,.18-.13.25-.29.25a.74.74,0,0,1-.25,0,.51.51,0,0,1-.35-.45V4.61a2.4,2.4,0,0,0,0-.37,2.66,2.66,0,0,0,0-.39l-.19-1.92a2.82,2.82,0,0,0-.16-.69.66.66,0,0,1-.13-.26s0-.07.1-.07a3.57,3.57,0,0,1,.87.25l4-.25h.22a.54.54,0,0,1,.54.47.56.56,0,0,1-.08.24l-.35,2.1c.22.23.31.39.31.48s-.15.17-.38.18Zm3.4-2.95-3.67.22.21,2.05,3.18-.18Z"/><path class="cls-1" d="M192.07,3.58h-.44c-.36,0-.57-.5-.62-.63a.28.28,0,0,1,0-.08s0-.08.08-.08a.18.18,0,0,1,.09,0,1.62,1.62,0,0,0,.46.05h.17l3.73-.23a1.85,1.85,0,0,0,.5-.1.22.22,0,0,1,.11,0c.21,0,.69.4.69.61s-.14.16-.3.17Zm1,7.52v.29c0,.19-.07.28-.23.28s-.64-.1-.64-.5c0,0,0-.07,0-.11a2.07,2.07,0,0,0,0-.35c0-.08,0-.16,0-.25l-.15-1.74A1.58,1.58,0,0,0,192,8a.57.57,0,0,1-.09-.23s0-.07.13-.07a3.09,3.09,0,0,1,.94.25l2.33-.11h.1c.21,0,.58.23.58.49a.8.8,0,0,1-.08.26l-.22,1.75a1.19,1.19,0,0,1,.29.53c0,.13-.15.13-.36.14Zm-.2-5.87-.27,0a.52.52,0,0,1-.34-.08,1.38,1.38,0,0,1-.38-.64s0-.06.08-.06h.08a1.61,1.61,0,0,0,.44,0h.13l2.1-.12a1.71,1.71,0,0,0,.45-.09h.12a.86.86,0,0,1,.65.58c0,.12-.14.17-.31.19Zm2.67,1.54L193,6.9h-.26a.52.52,0,0,1-.36-.09c-.05-.05-.38-.36-.38-.63,0,0,0-.07.06-.07h.08a1.68,1.68,0,0,0,.45.06h.15l1.94-.08a1.18,1.18,0,0,0,.45-.1.47.47,0,0,1,.16,0c.25,0,.62.45.62.6s-.12.18-.28.2Zm-1.09-4.6a9.92,9.92,0,0,0-1.72-.91c-.16-.07-.24-.15-.24-.27s.17-.46.33-.46,2.31.76,2.31,1.16c0,0-.12.58-.41.58A.56.56,0,0,1,194.49,2.17ZM195,8.6l-2.09.08.12,1.71,1.82-.05Zm2.19,2.58-.37,0a.6.6,0,0,1-.49-.15,1.57,1.57,0,0,1-.31-.58l0-.05a.1.1,0,0,1,.1-.11h.06a2.13,2.13,0,0,0,.65.12h.61l-.06-4.71a1,1,0,0,0-.18-.59.24.24,0,0,1,0-.12c0-.07.05-.09.14-.09a1.4,1.4,0,0,1,.51.13c.35.16.41.22.41.44l0,4.91,1.23-.05.06-7.81L198,2.63l-.5,0h-.07a.6.6,0,0,1-.37-.12,1.59,1.59,0,0,1-.35-.52.26.26,0,0,1,0-.1c0-.06,0-.08.11-.08h.09a2.12,2.12,0,0,0,.57.08h.1l3.82-.24a1.71,1.71,0,0,0,.62-.12.93.93,0,0,1,.19,0c.21,0,.74.43.74.64s-.15.16-.33.17l-2.23.14,0,3.27.82,0a2,2,0,0,0,.62-.14l.09,0c.19,0,.73.47.73.65s-.15.17-.33.18l-1.93.11,0,3.84,1.75-.05a2,2,0,0,0,.66-.09.29.29,0,0,1,.16,0c.21,0,.7.45.7.67s-.14.16-.29.17Z"/><path class="cls-1" d="M206.78,11.92a1.81,1.81,0,0,1-1.81-1.8,1.84,1.84,0,0,1,1.83-1.81,1.81,1.81,0,0,1,0,3.61Zm0-2.89a1.09,1.09,0,1,0,1.1,1.09A1.09,1.09,0,0,0,206.78,9Z"/><path class="cls-1" d="M33.25,28.86,43.76,29l-6.45,6.49L27,35.4l6.29-6.54m-.42-1-8.19,8.52,13.08.17,8.4-8.46-13.29-.23Z"/><polygon class="cls-1" points="24.71 22.69 33.12 14.28 33.12 27.85 24.71 36.26 24.71 22.69"/><path class="cls-1" d="M8.27,37.55l10.73,0L12.59,44l-10.29,0,6-6.39m-.44-1L0,44.93,13,45l8.41-8.41-13.58,0Z"/><polygon class="cls-1" points="0 31.13 8.4 22.72 8.4 36.47 0 44.87 0 31.13"/><path class="cls-1" d="M35.16,53.68l-6.25,6.66H18.58l6.31-6.66H35.16m2.3-1h-13l-8.2,8.66H29.34l8.12-8.66Z"/><polygon class="cls-1" points="16.28 47.79 24.68 39.39 24.68 52.96 16.28 61.37 16.28 47.79"/></g></g></svg>