<svg xmlns="http://www.w3.org/2000/svg" viewBox="0 0 297.55 57.51"><defs><style>.cls-1{fill:#fff;}.cls-2{fill:#e60012;}</style></defs><title>アセット 1</title><g id="レイヤー_2" data-name="レイヤー 2"><g id="レイヤー_1-2" data-name="レイヤー 1"><path class="cls-1" d="M49.11,40.38h9.08V57.51H69V1H39v56.5H49.12Zm.8-30.78h8.28v6.82H49.91Zm0,15.38h8.28V31.8H49.91Z"/><path class="cls-1" d="M13,57.51H24.82V50.43h12V42.54h-12v-2.7H35.27V13.71H24.82V11.06H37.25V3.28H24.82V.06H13V3.28H0v7.78H13v2.65H2V39.84H13v2.7H0v7.89H13Zm.16-36.73H24.6v3.38H13.12Zm0,8.64H24.6v3.43H13.12Z"/><path class="cls-2" d="M82.53,1v56.5h56.33V1Zm11.84,9.84h32.72V24.72H94.37Zm0,23.51H127V47.5H94.37Z"/><path class="cls-1" d="M201.65,17.22V10.53L219,9.46V0L201.73,1.1h0l-11,.64V57.51h11V26.19h5.16V57.51h10.91V26.19h3.11v-9H201.65"/><path class="cls-1" d="M187.63,11.05V2.84H175.84V0H163.65V2.84H151.77v8.21h4.1a34.91,34.91,0,0,1,1.67,6.8h-5.77v8.21h11.88v2.43H151.77V37h9.53c-2.2,3.51-5.58,7.55-9.53,8.71V57.47c4.91-1.54,8.91-5.94,11.88-9.45v9.49h12.19V48.07c3.06,3.46,7.09,7.86,11.79,9.4V45.66c-3.84-1.16-7.23-5.2-9.45-8.71h9.45V28.49H175.84V26.06h11.79V17.85h-5.78a36.41,36.41,0,0,1,1.67-6.8Zm-20.2,6.8a40.69,40.69,0,0,0-1.34-6.8h7.22a38.77,38.77,0,0,0-1.34,6.8h-4.54"/><path class="cls-1" d="M242.36,23.79h20.26V1H231.06v56.5h11.3Zm0-17h9.78v3.28h-9.78Zm0,8.08h9.78v3.76h-9.78Z"/><path class="cls-1" d="M266.06,23.79h20.21V57.51h11.29V1H266.06Zm10.42-17h9.79v3.28h-9.79Zm0,8.08h9.79v3.76h-9.79Z"/><path class="cls-1" d="M245,25.79v6.77h2.07V49.12l-2.05.06h0v6.6h0l26.6-.83h0v1.93H282V32.56h2.23V25.79Zm12.45,6.77h14.19v2.86H257.44Zm0,7.06h14.19v2.59H257.44Zm0,6.94h14.19v1.78l-14.19.45V46.56"/></g></g></svg>